<?xml version="1.0" encoding="UTF-8"?>
<!DOCTYPE svg PUBLIC "-//W3C//DTD SVG 1.1//EN" "http://www.w3.org/Graphics/SVG/1.1/DTD/svg11.dtd">
<svg xmlns="http://www.w3.org/2000/svg" version="1.1" width="482px" height="517px" style="shape-rendering:geometricPrecision; text-rendering:geometricPrecision; image-rendering:optimizeQuality; fill-rule:evenodd; clip-rule:evenodd" xmlns:xlink="http://www.w3.org/1999/xlink">
<g><path style="opacity:0.878" fill="#8c6fb1" d="M 220.5,101.5 C 249.997,100.336 279.664,100.169 309.5,101C 310.381,101.708 311.047,102.542 311.5,103.5C 281.199,102.766 250.865,102.099 220.5,101.5 Z"/></g>
<g><path style="opacity:1" fill="#3d147d" d="M 220.5,101.5 C 250.865,102.099 281.199,102.766 311.5,103.5C 312.262,105.262 313.596,106.262 315.5,106.5C 316.167,106.5 316.5,106.833 316.5,107.5C 316.973,108.906 317.973,109.573 319.5,109.5C 320.5,109.833 321.167,110.5 321.5,111.5C 321.973,112.906 322.973,113.573 324.5,113.5C 325.5,113.833 326.167,114.5 326.5,115.5C 326.973,116.906 327.973,117.573 329.5,117.5C 330.167,117.5 330.5,117.833 330.5,118.5C 330.973,119.906 331.973,120.573 333.5,120.5C 334.5,120.833 335.167,121.5 335.5,122.5C 335.973,123.906 336.973,124.573 338.5,124.5C 339.5,124.833 340.167,125.5 340.5,126.5C 341.262,128.262 342.596,129.262 344.5,129.5C 345.035,131.446 346.368,132.446 348.5,132.5C 349.5,132.833 350.167,133.5 350.5,134.5C 350.973,135.906 351.973,136.573 353.5,136.5C 354.167,136.5 354.5,136.833 354.5,137.5C 354.973,138.906 355.973,139.573 357.5,139.5C 358.5,139.833 359.167,140.5 359.5,141.5C 359.973,142.906 360.973,143.573 362.5,143.5C 363.5,143.833 364.167,144.5 364.5,145.5C 364.973,146.906 365.973,147.573 367.5,147.5C 368.5,147.833 369.167,148.5 369.5,149.5C 369.973,150.906 370.973,151.573 372.5,151.5C 373.5,151.833 374.167,152.5 374.5,153.5C 374.973,154.906 375.973,155.573 377.5,155.5C 378.539,157.531 380.205,158.864 382.5,159.5C 383.167,159.5 383.5,159.833 383.5,160.5C 383.973,161.906 384.973,162.573 386.5,162.5C 387.5,162.833 388.167,163.5 388.5,164.5C 388.973,165.906 389.973,166.573 391.5,166.5C 392.5,166.833 393.167,167.5 393.5,168.5C 393.973,169.906 394.973,170.573 396.5,170.5C 397.5,170.833 398.167,171.5 398.5,172.5C 398.973,173.906 399.973,174.573 401.5,174.5C 402.5,174.833 403.167,175.5 403.5,176.5C 403.973,177.906 404.973,178.573 406.5,178.5C 407.5,178.833 408.167,179.5 408.5,180.5C 408.937,182.074 409.937,183.241 411.5,184C 382.835,184.5 354.169,184.667 325.5,184.5C 324.833,184.5 324.5,184.167 324.5,183.5C 323.415,181.413 321.749,180.08 319.5,179.5C 318.738,177.738 317.404,176.738 315.5,176.5C 314.415,174.413 312.749,173.08 310.5,172.5C 309.415,170.413 307.749,169.08 305.5,168.5C 304.738,166.738 303.404,165.738 301.5,165.5C 300.415,163.413 298.749,162.08 296.5,161.5C 295.738,159.738 294.404,158.738 292.5,158.5C 291.5,158.167 290.833,157.5 290.5,156.5C 289.738,154.738 288.404,153.738 286.5,153.5C 285.415,151.413 283.749,150.08 281.5,149.5C 280.089,147.086 278.089,145.419 275.5,144.5C 274.738,142.738 273.404,141.738 271.5,141.5C 270.415,139.413 268.749,138.08 266.5,137.5C 265.415,135.413 263.749,134.08 261.5,133.5C 260.738,131.738 259.404,130.738 257.5,130.5C 256.415,128.413 254.749,127.08 252.5,126.5C 251.415,124.413 249.749,123.08 247.5,122.5C 246.738,120.738 245.404,119.738 243.5,119.5C 242.415,117.413 240.749,116.08 238.5,115.5C 237.089,113.086 235.089,111.419 232.5,110.5C 231.738,108.738 230.404,107.738 228.5,107.5C 227.738,105.738 226.404,104.738 224.5,104.5C 223.167,104.833 221.833,105.167 220.5,105.5C 218.164,104.406 218.164,103.073 220.5,101.5 Z"/></g>
<g><path style="opacity:0.008" fill="#d2c8e1" d="M 311.5,103.5 C 313.404,103.738 314.738,104.738 315.5,106.5C 313.596,106.262 312.262,105.262 311.5,103.5 Z"/></g>
<g><path style="opacity:0.518" fill="#c5b7d8" d="M 224.5,104.5 C 226.404,104.738 227.738,105.738 228.5,107.5C 226.596,107.262 225.262,106.262 224.5,104.5 Z"/></g>
<g><path style="opacity:0.588" fill="#aa96c6" d="M 214.5,106.5 C 213.415,108.587 211.749,109.92 209.5,110.5C 210.585,108.413 212.251,107.08 214.5,106.5 Z"/></g>
<g><path style="opacity:0.702" fill="#ad98c8" d="M 228.5,107.5 C 230.404,107.738 231.738,108.738 232.5,110.5C 230.596,110.262 229.262,109.262 228.5,107.5 Z"/></g>
<g><path style="opacity:0.004" fill="#dad2e7" d="M 316.5,107.5 C 318.027,107.427 319.027,108.094 319.5,109.5C 317.973,109.573 316.973,108.906 316.5,107.5 Z"/></g>
<g><path style="opacity:1" fill="#6f4c9c" d="M 220.5,101.5 C 218.164,103.073 218.164,104.406 220.5,105.5C 220.167,106.5 219.5,107.167 218.5,107.5C 216.973,107.427 215.973,108.094 215.5,109.5C 213.393,111.727 211.06,113.727 208.5,115.5C 207.624,115.631 206.957,115.298 206.5,114.5C 207.193,113.482 207.859,112.482 208.5,111.5C 208.5,110.833 208.833,110.5 209.5,110.5C 211.749,109.92 213.415,108.587 214.5,106.5C 215.911,104.086 217.911,102.419 220.5,101.5 Z"/></g>
<g><path style="opacity:0.016" fill="#e0d9ea" d="M 218.5,107.5 C 218.027,108.906 217.027,109.573 215.5,109.5C 215.973,108.094 216.973,107.427 218.5,107.5 Z"/></g>
<g><path style="opacity:0.008" fill="#d6cde4" d="M 321.5,111.5 C 323.027,111.427 324.027,112.094 324.5,113.5C 322.973,113.573 321.973,112.906 321.5,111.5 Z"/></g>
<g><path style="opacity:0.576" fill="#b09dca" d="M 232.5,110.5 C 235.089,111.419 237.089,113.086 238.5,115.5C 235.911,114.581 233.911,112.914 232.5,110.5 Z"/></g>
<g><path style="opacity:0.636" fill="#866cae" d="M 157.5,113.5 C 157.833,113.5 158.167,113.5 158.5,113.5C 158.667,126.171 158.5,138.838 158,151.5C 157.617,152.056 157.117,152.389 156.5,152.5C 157.463,139.549 157.796,126.549 157.5,113.5 Z"/></g>
<g><path style="opacity:1" fill="#41187f" d="M 158.5,113.5 C 163.854,113.569 169.187,113.902 174.5,114.5C 174.5,122.167 174.5,129.833 174.5,137.5C 175.551,138.222 176.218,139.222 176.5,140.5C 176.5,141.167 176.167,141.5 175.5,141.5C 173.596,141.738 172.262,142.738 171.5,144.5C 168.149,147.848 164.482,150.848 160.5,153.5C 158.938,153.733 157.605,154.4 156.5,155.5C 155.167,154.5 155.167,153.5 156.5,152.5C 157.117,152.389 157.617,152.056 158,151.5C 158.5,138.838 158.667,126.171 158.5,113.5 Z"/></g>
<g><path style="opacity:0.29" fill="#c7bcda" d="M 157.5,113.5 C 163.34,112.473 169.34,112.473 175.5,113.5C 175.175,121.352 175.508,129.018 176.5,136.5C 176.158,137.338 175.492,137.672 174.5,137.5C 174.5,129.833 174.5,122.167 174.5,114.5C 169.187,113.902 163.854,113.569 158.5,113.5C 158.167,113.5 157.833,113.5 157.5,113.5 Z"/></g>
<g><path style="opacity:0.565" fill="#9d85bc" d="M 208.5,111.5 C 207.859,112.482 207.193,113.482 206.5,114.5C 206.957,115.298 207.624,115.631 208.5,115.5C 207.71,116.401 206.71,117.068 205.5,117.5C 205.631,116.624 205.298,115.957 204.5,115.5C 203.06,116.952 201.394,117.952 199.5,118.5C 201.949,115.444 204.949,113.111 208.5,111.5 Z"/></g>
<g><path style="opacity:0.035" fill="#d2c8e1" d="M 326.5,115.5 C 328.027,115.427 329.027,116.094 329.5,117.5C 327.973,117.573 326.973,116.906 326.5,115.5 Z"/></g>
<g><path style="opacity:0.545" fill="#baa9d0" d="M 238.5,115.5 C 240.749,116.08 242.415,117.413 243.5,119.5C 241.251,118.92 239.585,117.587 238.5,115.5 Z"/></g>
<g><path style="opacity:0.004" fill="#ddd6e8" d="M 330.5,118.5 C 332.027,118.427 333.027,119.094 333.5,120.5C 331.973,120.573 330.973,119.906 330.5,118.5 Z"/></g>
<g><path style="opacity:1" fill="#4a2384" d="M 205.5,117.5 C 205.5,118.167 205.167,118.5 204.5,118.5C 202.596,118.738 201.262,119.738 200.5,121.5C 198.519,120.895 198.185,119.895 199.5,118.5C 201.394,117.952 203.06,116.952 204.5,115.5C 205.298,115.957 205.631,116.624 205.5,117.5 Z"/></g>
<g><path style="opacity:0.016" fill="#e0d9ea" d="M 204.5,118.5 C 203.738,120.262 202.404,121.262 200.5,121.5C 201.262,119.738 202.596,118.738 204.5,118.5 Z"/></g>
<g><path style="opacity:0.71" fill="#ac98c7" d="M 243.5,119.5 C 245.404,119.738 246.738,120.738 247.5,122.5C 245.596,122.262 244.262,121.262 243.5,119.5 Z"/></g>
<g><path style="opacity:0.012" fill="#d9d1e6" d="M 335.5,122.5 C 337.027,122.427 338.027,123.094 338.5,124.5C 336.973,124.573 335.973,123.906 335.5,122.5 Z"/></g>
<g><path style="opacity:0.569" fill="#ab96c6" d="M 247.5,122.5 C 249.749,123.08 251.415,124.413 252.5,126.5C 250.251,125.92 248.585,124.587 247.5,122.5 Z"/></g>
<g><path style="opacity:0.02" fill="#cdc1dd" d="M 340.5,126.5 C 342.404,126.738 343.738,127.738 344.5,129.5C 342.596,129.262 341.262,128.262 340.5,126.5 Z"/></g>
<g><path style="opacity:0.365" fill="#b3a1cc" d="M 252.5,126.5 C 254.749,127.08 256.415,128.413 257.5,130.5C 255.251,129.92 253.585,128.587 252.5,126.5 Z"/></g>
<g><path style="opacity:0.761" fill="#a58fc2" d="M 257.5,130.5 C 259.404,130.738 260.738,131.738 261.5,133.5C 259.596,133.262 258.262,132.262 257.5,130.5 Z"/></g>
<g><path style="opacity:1" fill="#7c5ca5" d="M 199.5,118.5 C 198.185,119.895 198.519,120.895 200.5,121.5C 197.149,124.848 193.482,127.848 189.5,130.5C 187.973,130.427 186.973,131.094 186.5,132.5C 183.48,135.516 180.146,138.183 176.5,140.5C 176.218,139.222 175.551,138.222 174.5,137.5C 175.492,137.672 176.158,137.338 176.5,136.5C 183.614,129.778 191.281,123.778 199.5,118.5 Z"/></g>
<g><path style="opacity:0.02" fill="#dfd7e9" d="M 189.5,130.5 C 189.027,131.906 188.027,132.573 186.5,132.5C 186.973,131.094 187.973,130.427 189.5,130.5 Z"/></g>
<g><path style="opacity:0.545" fill="#b09cc9" d="M 344.5,129.5 C 346.23,130.026 347.564,131.026 348.5,132.5C 346.368,132.446 345.035,131.446 344.5,129.5 Z"/></g>
<g><path style="opacity:0.012" fill="#d2c8e1" d="M 350.5,134.5 C 352.027,134.427 353.027,135.094 353.5,136.5C 351.973,136.573 350.973,135.906 350.5,134.5 Z"/></g>
<g><path style="opacity:0.576" fill="#a690c3" d="M 261.5,133.5 C 263.749,134.08 265.415,135.413 266.5,137.5C 264.251,136.92 262.585,135.587 261.5,133.5 Z"/></g>
<g><path style="opacity:0.012" fill="#dcd5e8" d="M 354.5,137.5 C 356.027,137.427 357.027,138.094 357.5,139.5C 355.973,139.573 354.973,138.906 354.5,137.5 Z"/></g>
<g><path style="opacity:0.439" fill="#bbacd2" d="M 200.5,157.5 C 206.167,157.5 211.833,157.5 217.5,157.5C 217.5,151.833 217.5,146.167 217.5,140.5C 211.833,140.5 206.167,140.5 200.5,140.5C 200.802,143.059 200.468,145.393 199.5,147.5C 199.5,144.833 199.5,142.167 199.5,139.5C 205.833,139.5 212.167,139.5 218.5,139.5C 218.5,145.833 218.5,152.167 218.5,158.5C 212.31,158.823 206.31,158.49 200.5,157.5 Z"/></g>
<g><path style="opacity:0.541" fill="#ad99c8" d="M 266.5,137.5 C 268.749,138.08 270.415,139.413 271.5,141.5C 269.251,140.92 267.585,139.587 266.5,137.5 Z"/></g>
<g><path style="opacity:0.999" fill="#441b80" d="M 200.5,157.5 C 199.883,157.389 199.383,157.056 199,156.5C 198.195,153.304 198.362,150.304 199.5,147.5C 200.468,145.393 200.802,143.059 200.5,140.5C 206.167,140.5 211.833,140.5 217.5,140.5C 217.5,146.167 217.5,151.833 217.5,157.5C 211.833,157.5 206.167,157.5 200.5,157.5 Z"/></g>
<g><path style="opacity:0.999" fill="#3e157d" d="M 224.5,140.5 C 230.5,140.5 236.5,140.5 242.5,140.5C 242.5,146.167 242.5,151.833 242.5,157.5C 236.5,157.5 230.5,157.5 224.5,157.5C 224.5,151.833 224.5,146.167 224.5,140.5 Z"/></g>
<g><path style="opacity:0.306" fill="#b8a9d0" d="M 224.5,140.5 C 230.645,139.51 236.978,139.177 243.5,139.5C 243.5,145.833 243.5,152.167 243.5,158.5C 236.978,158.823 230.645,158.49 224.5,157.5C 230.5,157.5 236.5,157.5 242.5,157.5C 242.5,151.833 242.5,146.167 242.5,140.5C 236.5,140.5 230.5,140.5 224.5,140.5 Z"/></g>
<g><path style="opacity:0.796" fill="#a089bf" d="M 271.5,141.5 C 273.404,141.738 274.738,142.738 275.5,144.5C 273.596,144.262 272.262,143.262 271.5,141.5 Z"/></g>
<g><path style="opacity:0.008" fill="#dbd3e7" d="M 359.5,141.5 C 361.027,141.427 362.027,142.094 362.5,143.5C 360.973,143.573 359.973,142.906 359.5,141.5 Z"/></g>
<g><path style="opacity:0.012" fill="#dbd2e7" d="M 175.5,141.5 C 174.738,143.262 173.404,144.262 171.5,144.5C 172.262,142.738 173.596,141.738 175.5,141.5 Z"/></g>
<g><path style="opacity:0.016" fill="#d7cee4" d="M 364.5,145.5 C 366.027,145.427 367.027,146.094 367.5,147.5C 365.973,147.573 364.973,146.906 364.5,145.5 Z"/></g>
<g><path style="opacity:0.627" fill="#a893c4" d="M 275.5,144.5 C 278.089,145.419 280.089,147.086 281.5,149.5C 278.911,148.581 276.911,146.914 275.5,144.5 Z"/></g>
<g><path style="opacity:0.027" fill="#d2c7e1" d="M 369.5,149.5 C 371.027,149.427 372.027,150.094 372.5,151.5C 370.973,151.573 369.973,150.906 369.5,149.5 Z"/></g>
<g><path style="opacity:0.329" fill="#b8a6cf" d="M 281.5,149.5 C 283.749,150.08 285.415,151.413 286.5,153.5C 284.251,152.92 282.585,151.587 281.5,149.5 Z"/></g>
<g><path style="opacity:0.745" fill="#a994c5" d="M 286.5,153.5 C 288.404,153.738 289.738,154.738 290.5,156.5C 288.596,156.262 287.262,155.262 286.5,153.5 Z"/></g>
<g><path style="opacity:0.016" fill="#d1c5e0" d="M 374.5,153.5 C 376.027,153.427 377.027,154.094 377.5,155.5C 375.973,155.573 374.973,154.906 374.5,153.5 Z"/></g>
<g><path style="opacity:0.012" fill="#dfd8ea" d="M 160.5,153.5 C 159.738,155.262 158.404,156.262 156.5,156.5C 156.5,156.167 156.5,155.833 156.5,155.5C 157.605,154.4 158.938,153.733 160.5,153.5 Z"/></g>
<g><path style="opacity:0.475" fill="#baa9d1" d="M 377.5,155.5 C 379.754,156.124 381.421,157.457 382.5,159.5C 380.205,158.864 378.539,157.531 377.5,155.5 Z"/></g>
<g><path style="opacity:0.62" fill="#baa9d1" d="M 292.5,158.5 C 294.404,158.738 295.738,159.738 296.5,161.5C 294.596,161.262 293.262,160.262 292.5,158.5 Z"/></g>
<g><path style="opacity:0.012" fill="#dad2e6" d="M 383.5,160.5 C 385.027,160.427 386.027,161.094 386.5,162.5C 384.973,162.573 383.973,161.906 383.5,160.5 Z"/></g>
<g><path style="opacity:0.808" fill="#967bb8" d="M 242.5,163.5 C 242.5,163.833 242.5,164.167 242.5,164.5C 236.833,164.5 231.167,164.5 225.5,164.5C 225.918,163.778 226.584,163.278 227.5,163C 232.684,162.184 237.684,162.35 242.5,163.5 Z"/></g>
<g><path style="opacity:0.486" fill="#b5a3ce" d="M 296.5,161.5 C 298.749,162.08 300.415,163.413 301.5,165.5C 299.251,164.92 297.585,163.587 296.5,161.5 Z"/></g>
<g><path style="opacity:1" fill="#471f82" d="M 217.5,163.5 C 217.5,169.5 217.5,175.5 217.5,181.5C 212.167,181.5 206.833,181.5 201.5,181.5C 200.548,175.925 200.214,170.259 200.5,164.5C 201.791,164.737 202.791,164.404 203.5,163.5C 208.167,162.167 212.833,162.167 217.5,163.5 Z"/></g>
<g><path style="opacity:0.012" fill="#d8d0e6" d="M 388.5,164.5 C 390.027,164.427 391.027,165.094 391.5,166.5C 389.973,166.573 388.973,165.906 388.5,164.5 Z"/></g>
<g><path style="opacity:1" fill="#3c127c" d="M 225.5,164.5 C 231.167,164.5 236.833,164.5 242.5,164.5C 242.5,170.167 242.5,175.833 242.5,181.5C 237.167,181.5 231.833,181.5 226.5,181.5C 225.833,181.5 225.5,181.167 225.5,180.5C 225.5,175.167 225.5,169.833 225.5,164.5 Z"/></g>
<g><path style="opacity:0.757" fill="#a38dc1" d="M 301.5,165.5 C 303.404,165.738 304.738,166.738 305.5,168.5C 303.596,168.262 302.262,167.262 301.5,165.5 Z"/></g>
<g><path style="opacity:1" fill="#7655a1" d="M 156.5,152.5 C 155.167,153.5 155.167,154.5 156.5,155.5C 156.5,155.833 156.5,156.167 156.5,156.5C 153.149,159.848 149.482,162.848 145.5,165.5C 143.973,165.427 142.973,166.094 142.5,167.5C 140.909,169.633 138.909,171.299 136.5,172.5C 134.596,172.738 133.262,173.738 132.5,175.5C 131.421,177.543 129.754,178.876 127.5,179.5C 126.448,179.649 125.448,179.483 124.5,179C 125.381,178.292 126.047,177.458 126.5,176.5C 127.585,174.413 129.251,173.08 131.5,172.5C 133.749,171.92 135.415,170.587 136.5,168.5C 142.873,162.794 149.539,157.46 156.5,152.5 Z"/></g>
<g><path style="opacity:0.008" fill="#e3ddec" d="M 145.5,165.5 C 145.027,166.906 144.027,167.573 142.5,167.5C 142.973,166.094 143.973,165.427 145.5,165.5 Z"/></g>
<g><path style="opacity:0.365" fill="#af9dc9" d="M 203.5,163.5 C 202.791,164.404 201.791,164.737 200.5,164.5C 200.214,170.259 200.548,175.925 201.5,181.5C 200.005,181.585 199.005,180.919 198.5,179.5C 199.451,174.23 199.785,168.897 199.5,163.5C 200.833,163.5 202.167,163.5 203.5,163.5 Z"/></g>
<g><path style="opacity:0.027" fill="#d4c9e2" d="M 393.5,168.5 C 395.027,168.427 396.027,169.094 396.5,170.5C 394.973,170.573 393.973,169.906 393.5,168.5 Z"/></g>
<g><path style="opacity:0.541" fill="#a892c4" d="M 305.5,168.5 C 307.749,169.08 309.415,170.413 310.5,172.5C 308.251,171.92 306.585,170.587 305.5,168.5 Z"/></g>
<g><path style="opacity:0.816" fill="#9e87be" d="M 136.5,168.5 C 135.415,170.587 133.749,171.92 131.5,172.5C 132.585,170.413 134.251,169.08 136.5,168.5 Z"/></g>
<g><path style="opacity:0.843" fill="#896daf" d="M 225.5,164.5 C 225.5,169.833 225.5,175.167 225.5,180.5C 222.833,175.167 222.833,169.833 225.5,164.5 Z"/></g>
<g><path style="opacity:0.027" fill="#d3c8e1" d="M 398.5,172.5 C 400.027,172.427 401.027,173.094 401.5,174.5C 399.973,174.573 398.973,173.906 398.5,172.5 Z"/></g>
<g><path style="opacity:0.027" fill="#d9cfe5" d="M 136.5,172.5 C 135.738,174.262 134.404,175.262 132.5,175.5C 133.262,173.738 134.596,172.738 136.5,172.5 Z"/></g>
<g><path style="opacity:0.518" fill="#af9bc9" d="M 310.5,172.5 C 312.749,173.08 314.415,174.413 315.5,176.5C 313.251,175.92 311.585,174.587 310.5,172.5 Z"/></g>
<g><path style="opacity:0.776" fill="#9f88bf" d="M 315.5,176.5 C 317.404,176.738 318.738,177.738 319.5,179.5C 317.596,179.262 316.262,178.262 315.5,176.5 Z"/></g>
<g><path style="opacity:0.004" fill="#d9d0e6" d="M 403.5,176.5 C 405.027,176.427 406.027,177.094 406.5,178.5C 404.973,178.573 403.973,177.906 403.5,176.5 Z"/></g>
<g><path style="opacity:0.992" fill="#9980ba" d="M 126.5,176.5 C 126.047,177.458 125.381,178.292 124.5,179C 125.448,179.483 126.448,179.649 127.5,179.5C 127.027,180.906 126.027,181.573 124.5,181.5C 124.265,180.903 123.765,180.57 123,180.5C 121.357,181.315 119.857,182.315 118.5,183.5C 118.511,181.983 119.177,180.816 120.5,180C 122.405,178.579 124.405,177.412 126.5,176.5 Z"/></g>
<g><path style="opacity:0.204" fill="#dfd8ea" d="M 217.5,163.5 C 218.49,169.645 218.823,175.978 218.5,182.5C 212.642,182.822 206.975,182.489 201.5,181.5C 206.833,181.5 212.167,181.5 217.5,181.5C 217.5,175.5 217.5,169.5 217.5,163.5 Z"/></g>
<g><path style="opacity:0.212" fill="#d0c6df" d="M 242.5,163.5 C 243.49,169.645 243.823,175.978 243.5,182.5C 237.642,182.822 231.975,182.489 226.5,181.5C 231.833,181.5 237.167,181.5 242.5,181.5C 242.5,175.833 242.5,170.167 242.5,164.5C 242.5,164.167 242.5,163.833 242.5,163.5 Z"/></g>
<g><path style="opacity:0.518" fill="#af9bc9" d="M 319.5,179.5 C 321.749,180.08 323.415,181.413 324.5,183.5C 322.251,182.92 320.585,181.587 319.5,179.5 Z"/></g>
<g><path style="opacity:0.97" fill="#57328d" d="M 124.5,181.5 C 124.167,182.5 123.5,183.167 122.5,183.5C 120.973,183.427 119.973,184.094 119.5,185.5C 118.662,185.158 118.328,184.492 118.5,183.5C 119.857,182.315 121.357,181.315 123,180.5C 123.765,180.57 124.265,180.903 124.5,181.5 Z"/></g>
<g><path style="opacity:0.004" fill="#e5dfed" d="M 122.5,183.5 C 122.027,184.906 121.027,185.573 119.5,185.5C 119.973,184.094 120.973,183.427 122.5,183.5 Z"/></g>
<g><path style="opacity:0.056" fill="#efebf4" d="M 408.5,180.5 C 410.723,181.114 412.389,182.448 413.5,184.5C 384.003,185.83 354.669,185.83 325.5,184.5C 354.169,184.667 382.835,184.5 411.5,184C 409.937,183.241 408.937,182.074 408.5,180.5 Z"/></g>
<g><path style="opacity:0.365" fill="#c7bada" d="M 118.5,183.5 C 118.328,184.492 118.662,185.158 119.5,185.5C 115.959,186.856 115.626,186.189 118.5,183.5 Z"/></g>
<g><path style="opacity:0.173" fill="#dbd4e8" d="M 209.5,216.5 C 225.658,215.504 241.991,215.17 258.5,215.5C 258.784,217.415 258.451,219.081 257.5,220.5C 257.5,219.167 257.5,217.833 257.5,216.5C 241.833,216.5 226.167,216.5 210.5,216.5C 210.167,216.5 209.833,216.5 209.5,216.5 Z"/></g>
<g><path style="opacity:0.173" fill="#ded7ea" d="M 303.5,221.5 C 310.982,220.508 318.648,220.175 326.5,220.5C 326.5,219.167 326.5,217.833 326.5,216.5C 309.167,216.5 291.833,216.5 274.5,216.5C 274.5,217.833 274.5,219.167 274.5,220.5C 273.549,219.081 273.216,217.415 273.5,215.5C 291.5,215.5 309.5,215.5 327.5,215.5C 327.5,217.5 327.5,219.5 327.5,221.5C 319.5,221.5 311.5,221.5 303.5,221.5 Z"/></g>
<g><path style="opacity:0.639" fill="#c0b1d4" d="M 134.5,215.5 C 136.914,216.911 138.581,218.911 139.5,221.5C 137.5,220.167 135.833,218.5 134.5,216.5C 134.5,216.167 134.5,215.833 134.5,215.5 Z"/></g>
<g><path style="opacity:0.998" fill="#40177e" d="M 303.5,221.5 C 304.405,222.702 304.405,224.036 303.5,225.5C 302.686,227.631 302.186,229.964 302,232.5C 301.833,248.844 301.333,265.177 300.5,281.5C 299.833,261.004 299.167,240.671 298.5,220.5C 290.5,220.5 282.5,220.5 274.5,220.5C 274.5,219.167 274.5,217.833 274.5,216.5C 291.833,216.5 309.167,216.5 326.5,216.5C 326.5,217.833 326.5,219.167 326.5,220.5C 318.648,220.175 310.982,220.508 303.5,221.5 Z"/></g>
<g><path style="opacity:0.999" fill="#3e147d" d="M 368.5,281.5 C 367.167,281.5 365.833,281.5 364.5,281.5C 364.5,261.167 364.5,240.833 364.5,220.5C 356.5,220.5 348.5,220.5 340.5,220.5C 340.5,219.167 340.5,217.833 340.5,216.5C 357.833,216.5 375.167,216.5 392.5,216.5C 392.5,217.833 392.5,219.167 392.5,220.5C 384.5,220.5 376.5,220.5 368.5,220.5C 368.5,240.833 368.5,261.167 368.5,281.5 Z"/></g>
<g><path style="opacity:0.999" fill="#461e82" d="M 134.5,216.5 C 135.833,218.5 137.5,220.167 139.5,221.5C 140.5,221.833 141.167,222.5 141.5,223.5C 141.427,225.027 142.094,226.027 143.5,226.5C 144.5,226.833 145.167,227.5 145.5,228.5C 146.419,231.089 148.086,233.089 150.5,234.5C 151.5,234.833 152.167,235.5 152.5,236.5C 153.08,238.749 154.413,240.415 156.5,241.5C 157.419,244.089 159.086,246.089 161.5,247.5C 162.5,247.833 163.167,248.5 163.5,249.5C 164.08,251.749 165.413,253.415 167.5,254.5C 168.5,254.833 169.167,255.5 169.5,256.5C 170.419,259.089 172.086,261.089 174.5,262.5C 175.757,265.427 177.757,267.761 180.5,269.5C 180.821,271.048 181.821,271.715 183.5,271.5C 183.5,266.167 183.5,260.833 183.5,255.5C 183.5,242.5 183.5,229.5 183.5,216.5C 184.5,216.5 185.5,216.5 186.5,216.5C 186.831,238.673 186.497,260.673 185.5,282.5C 182.833,280.5 180.5,278.167 178.5,275.5C 178.573,273.973 177.906,272.973 176.5,272.5C 174.833,271.5 173.5,270.167 172.5,268.5C 172.262,266.596 171.262,265.262 169.5,264.5C 166.705,262.249 164.372,259.582 162.5,256.5C 162.5,254.5 161.5,253.5 159.5,253.5C 158.5,252.167 157.5,250.833 156.5,249.5C 156.5,247.5 155.5,246.5 153.5,246.5C 152.5,245.167 151.5,243.833 150.5,242.5C 150.573,240.973 149.906,239.973 148.5,239.5C 146.833,238.5 145.5,237.167 144.5,235.5C 144.5,234.167 143.833,233.5 142.5,233.5C 142.573,231.973 141.906,230.973 140.5,230.5C 139.5,230.167 138.833,229.5 138.5,228.5C 138.217,227.711 137.717,227.044 137,226.5C 136.5,244.83 136.333,263.164 136.5,281.5C 135.5,281.5 134.5,281.5 133.5,281.5C 133.169,259.66 133.503,237.994 134.5,216.5 Z"/></g>
<g><path style="opacity:0.627" fill="#8b72b1" d="M 186.5,216.5 C 186.833,216.5 187.167,216.5 187.5,216.5C 187.833,239.176 187.5,261.843 186.5,284.5C 185.702,284.043 185.369,283.376 185.5,282.5C 186.497,260.673 186.831,238.673 186.5,216.5 Z"/></g>
<g><path style="opacity:1" fill="#3f167e" d="M 210.5,216.5 C 226.167,216.5 241.833,216.5 257.5,216.5C 257.5,217.833 257.5,219.167 257.5,220.5C 242.833,220.5 228.167,220.5 213.5,220.5C 213.5,229.167 213.5,237.833 213.5,246.5C 225.5,246.5 237.5,246.5 249.5,246.5C 249.953,247.458 250.619,248.292 251.5,249C 239.5,249.333 227.5,249.667 215.5,250C 214.944,250.383 214.611,250.883 214.5,251.5C 213.507,259.984 213.174,268.651 213.5,277.5C 218.797,278.275 224.13,278.608 229.5,278.5C 239.889,277.859 249.889,278.526 259.5,280.5C 259.5,281.167 259.167,281.5 258.5,281.5C 242.5,281.5 226.5,281.5 210.5,281.5C 210.5,259.833 210.5,238.167 210.5,216.5 Z"/></g>
<g><path style="opacity:0.408" fill="#bfb0d4" d="M 187.5,216.5 C 187.167,216.5 186.833,216.5 186.5,216.5C 185.5,216.5 184.5,216.5 183.5,216.5C 183.5,229.5 183.5,242.5 183.5,255.5C 182.515,259.634 182.182,263.968 182.5,268.5C 182.251,251.012 182.251,233.346 182.5,215.5C 184.415,215.216 186.081,215.549 187.5,216.5 Z"/></g>
<g><path style="opacity:0.735" fill="#7557a2" d="M 209.5,216.5 C 209.833,216.5 210.167,216.5 210.5,216.5C 210.5,238.167 210.5,259.833 210.5,281.5C 226.5,281.5 242.5,281.5 258.5,281.5C 242.342,282.496 226.009,282.83 209.5,282.5C 209.5,260.5 209.5,238.5 209.5,216.5 Z"/></g>
<g><path style="opacity:0.858" fill="#7c5ca6" d="M 298.5,220.5 C 299.167,240.671 299.833,261.004 300.5,281.5C 301.333,265.177 301.833,248.844 302,232.5C 302.186,229.964 302.686,227.631 303.5,225.5C 303.5,244.5 303.5,263.5 303.5,282.5C 301.833,282.5 300.167,282.5 298.5,282.5C 298.5,261.833 298.5,241.167 298.5,220.5 Z"/></g>
<g><path style="opacity:0.035" fill="#f5f3f8" d="M 274.5,220.5 C 282.5,220.5 290.5,220.5 298.5,220.5C 298.5,241.167 298.5,261.833 298.5,282.5C 297.503,262.34 297.17,242.007 297.5,221.5C 289.648,221.825 281.982,221.492 274.5,220.5 Z"/></g>
<g><path style="opacity:0.231" fill="#d5cbe3" d="M 368.5,282.5 C 368.5,282.167 368.5,281.833 368.5,281.5C 368.5,261.167 368.5,240.833 368.5,220.5C 376.5,220.5 384.5,220.5 392.5,220.5C 392.5,219.167 392.5,217.833 392.5,216.5C 375.167,216.5 357.833,216.5 340.5,216.5C 340.5,217.833 340.5,219.167 340.5,220.5C 339.549,219.081 339.216,217.415 339.5,215.5C 357.5,215.5 375.5,215.5 393.5,215.5C 393.5,217.5 393.5,219.5 393.5,221.5C 385.5,221.5 377.5,221.5 369.5,221.5C 369.83,242.007 369.497,262.34 368.5,282.5 Z"/></g>
<g><path style="opacity:0.586" fill="#9f89be" d="M 340.5,220.5 C 348.5,220.5 356.5,220.5 364.5,220.5C 364.5,240.833 364.5,261.167 364.5,281.5C 365.833,281.5 367.167,281.5 368.5,281.5C 368.5,281.833 368.5,282.167 368.5,282.5C 366.833,282.5 365.167,282.5 363.5,282.5C 363.5,262.167 363.5,241.833 363.5,221.5C 355.648,221.825 347.982,221.492 340.5,220.5 Z"/></g>
<g><path style="opacity:0.643" fill="#ad99c8" d="M 141.5,223.5 C 142.906,223.973 143.573,224.973 143.5,226.5C 142.094,226.027 141.427,225.027 141.5,223.5 Z"/></g>
<g><path style="opacity:0.294" fill="#dad3e7" d="M 257.5,220.5 C 243.343,221.496 229.01,221.829 214.5,221.5C 214.5,229.5 214.5,237.5 214.5,245.5C 226.345,245.172 238.012,245.505 249.5,246.5C 237.5,246.5 225.5,246.5 213.5,246.5C 213.5,237.833 213.5,229.167 213.5,220.5C 228.167,220.5 242.833,220.5 257.5,220.5 Z"/></g>
<g><path style="opacity:0.891" fill="#886aae" d="M 134.5,215.5 C 134.5,215.833 134.5,216.167 134.5,216.5C 133.503,237.994 133.169,259.66 133.5,281.5C 134.5,281.5 135.5,281.5 136.5,281.5C 136.5,281.833 136.5,282.167 136.5,282.5C 134.833,282.5 133.167,282.5 131.5,282.5C 131.333,260.497 131.5,238.497 132,216.5C 132.299,213.202 133.133,212.868 134.5,215.5 Z"/></g>
<g><path style="opacity:0.875" fill="#a68fc3" d="M 145.5,228.5 C 147.914,229.911 149.581,231.911 150.5,234.5C 148.086,233.089 146.419,231.089 145.5,228.5 Z"/></g>
<g><path style="opacity:0.004" fill="#ddd5e8" d="M 140.5,230.5 C 141.906,230.973 142.573,231.973 142.5,233.5C 141.094,233.027 140.427,232.027 140.5,230.5 Z"/></g>
<g><path style="opacity:0.113" fill="#e6e1ee" d="M 138.5,228.5 C 137.833,246.5 137.167,264.5 136.5,282.5C 136.5,282.167 136.5,281.833 136.5,281.5C 136.333,263.164 136.5,244.83 137,226.5C 137.717,227.044 138.217,227.711 138.5,228.5 Z"/></g>
<g><path style="opacity:0.596" fill="#bdadd3" d="M 142.5,233.5 C 143.833,233.5 144.5,234.167 144.5,235.5C 143.5,235.167 142.833,234.5 142.5,233.5 Z"/></g>
<g><path style="opacity:0.518" fill="#baa9d1" d="M 152.5,236.5 C 154.587,237.585 155.92,239.251 156.5,241.5C 154.413,240.415 153.08,238.749 152.5,236.5 Z"/></g>
<g><path style="opacity:0.008" fill="#d3c8e1" d="M 148.5,239.5 C 149.906,239.973 150.573,240.973 150.5,242.5C 149.094,242.027 148.427,241.027 148.5,239.5 Z"/></g>
<g><path style="opacity:0.808" fill="#a791c3" d="M 156.5,241.5 C 158.914,242.911 160.581,244.911 161.5,247.5C 159.086,246.089 157.419,244.089 156.5,241.5 Z"/></g>
<g><path style="opacity:0.486" fill="#c7b8d9" d="M 153.5,246.5 C 155.5,246.5 156.5,247.5 156.5,249.5C 155.167,248.833 154.167,247.833 153.5,246.5 Z"/></g>
<g><path style="opacity:0.6" fill="#937bb6" d="M 249.5,246.5 C 251.384,246.712 252.717,247.712 253.5,249.5C 240.469,250.203 227.469,250.869 214.5,251.5C 214.611,250.883 214.944,250.383 215.5,250C 227.5,249.667 239.5,249.333 251.5,249C 250.619,248.292 249.953,247.458 249.5,246.5 Z"/></g>
<g><path style="opacity:0.678" fill="#b6a4ce" d="M 163.5,249.5 C 165.587,250.585 166.92,252.251 167.5,254.5C 165.413,253.415 164.08,251.749 163.5,249.5 Z"/></g>
<g><path style="opacity:0.291" fill="#c0b3d5" d="M 214.5,251.5 C 214.5,259.833 214.5,268.167 214.5,276.5C 219.463,277.254 224.463,277.587 229.5,277.5C 229.5,277.833 229.5,278.167 229.5,278.5C 224.13,278.608 218.797,278.275 213.5,277.5C 213.174,268.651 213.507,259.984 214.5,251.5 Z"/></g>
<g><path style="opacity:0.584" fill="#bcacd2" d="M 159.5,253.5 C 161.5,253.5 162.5,254.5 162.5,256.5C 161.167,255.833 160.167,254.833 159.5,253.5 Z"/></g>
<g><path style="opacity:0.635" fill="#8368ac" d="M 183.5,255.5 C 183.5,260.833 183.5,266.167 183.5,271.5C 181.821,271.715 180.821,271.048 180.5,269.5C 181.925,271.031 182.591,270.698 182.5,268.5C 182.182,263.968 182.515,259.634 183.5,255.5 Z"/></g>
<g><path style="opacity:0.71" fill="#bdadd3" d="M 169.5,256.5 C 171.914,257.911 173.581,259.911 174.5,262.5C 172.086,261.089 170.419,259.089 169.5,256.5 Z"/></g>
<g><path style="opacity:0.816" fill="#a994c5" d="M 174.5,262.5 C 177.243,264.239 179.243,266.573 180.5,269.5C 177.757,267.761 175.757,265.427 174.5,262.5 Z"/></g>
<g><path style="opacity:0.008" fill="#d5cbe3" d="M 169.5,264.5 C 171.262,265.262 172.262,266.596 172.5,268.5C 170.738,267.738 169.738,266.404 169.5,264.5 Z"/></g>
<g><path style="opacity:0.02" fill="#d4cae2" d="M 176.5,272.5 C 177.906,272.973 178.573,273.973 178.5,275.5C 177.094,275.027 176.427,274.027 176.5,272.5 Z"/></g>
<g><path style="opacity:0.046" fill="#f3f1f7" d="M 229.5,278.5 C 229.5,278.167 229.5,277.833 229.5,277.5C 239.833,277.5 250.167,277.5 260.5,277.5C 260.737,278.791 260.404,279.791 259.5,280.5C 249.889,278.526 239.889,277.859 229.5,278.5 Z"/></g>
<g><path style="opacity:0.489" fill="#9d86bd" d="M 412.5,317.5 C 312.167,317.5 211.833,317.5 111.5,317.5C 113.556,316.784 115.723,316.117 118,315.5C 214.137,316.832 310.304,316.832 406.5,315.5C 408.657,316.05 410.657,316.717 412.5,317.5 Z"/></g>
<g><path style="opacity:0.185" fill="#d9d0e6" d="M 111.5,317.5 C 111.389,318.117 111.056,318.617 110.5,319C 211.5,319.667 312.5,319.667 413.5,319C 412.944,318.617 412.611,318.117 412.5,317.5C 414.048,317.821 414.715,318.821 414.5,320.5C 312.833,320.5 211.167,320.5 109.5,320.5C 109.285,318.821 109.952,317.821 111.5,317.5 Z"/></g>
<g><path style="opacity:0.973" fill="#3d147d" d="M 111.5,317.5 C 211.833,317.5 312.167,317.5 412.5,317.5C 412.611,318.117 412.944,318.617 413.5,319C 312.5,319.667 211.5,319.667 110.5,319C 111.056,318.617 111.389,318.117 111.5,317.5 Z"/></g>
<g><path style="opacity:0.027" fill="#e8e3ef" d="M 170.5,345.5 C 171.623,344.243 172.289,344.576 172.5,346.5C 171.833,346.167 171.167,345.833 170.5,345.5 Z"/></g>
<g><path style="opacity:0.722" fill="#c3b4d7" d="M 403.5,345.5 C 397.4,345.377 391.4,346.043 385.5,347.5C 391.293,344.61 397.293,343.944 403.5,345.5 Z"/></g>
<g><path style="opacity:0.999" fill="#552e8b" d="M 403.5,345.5 C 405.565,345.517 407.565,345.85 409.5,346.5C 410.78,347.931 412.447,348.598 414.5,348.5C 416.404,348.738 417.738,349.738 418.5,351.5C 418.179,353.048 417.179,353.715 415.5,353.5C 413.562,351.837 411.228,351.171 408.5,351.5C 402.855,350.613 397.188,350.446 391.5,351C 387.178,352.157 383.511,354.324 380.5,357.5C 379.275,358.152 378.608,359.319 378.5,361C 378.497,363.484 379.163,365.651 380.5,367.5C 380.414,368.496 380.748,369.329 381.5,370C 384.592,371.546 387.592,373.046 390.5,374.5C 394.126,376.498 398.126,377.498 402.5,377.5C 404.102,379.074 406.102,379.741 408.5,379.5C 411.241,379.707 413.574,380.707 415.5,382.5C 416.326,384.264 417.659,385.598 419.5,386.5C 419.427,388.027 420.094,389.027 421.5,389.5C 422.787,393.268 422.787,396.935 421.5,400.5C 420.326,401.514 419.66,402.847 419.5,404.5C 419.5,405.167 419.167,405.5 418.5,405.5C 417.5,405.833 416.833,406.5 416.5,407.5C 414.244,410.405 411.244,412.072 407.5,412.5C 401.167,412.5 394.833,412.5 388.5,412.5C 383.806,410.386 378.806,409.053 373.5,408.5C 372.699,406.958 372.366,405.292 372.5,403.5C 373.5,403.5 374.5,403.5 375.5,403.5C 376.287,405.104 377.62,405.771 379.5,405.5C 382.719,407.718 386.386,408.885 390.5,409C 395.02,409.814 399.354,409.647 403.5,408.5C 406.01,408.946 408.01,408.28 409.5,406.5C 409.842,405.662 410.508,405.328 411.5,405.5C 415.093,404.57 416.759,402.237 416.5,398.5C 417.629,396.372 417.796,394.039 417,391.5C 416.623,390.058 415.79,389.058 414.5,388.5C 413.738,386.738 412.404,385.738 410.5,385.5C 409.508,385.672 408.842,385.338 408.5,384.5C 406.898,382.926 404.898,382.259 402.5,382.5C 400.162,380.96 397.495,380.294 394.5,380.5C 391.417,378.975 388.084,377.975 384.5,377.5C 384.167,377.5 383.833,377.5 383.5,377.5C 383.027,376.094 382.027,375.427 380.5,375.5C 379.5,375.167 378.833,374.5 378.5,373.5C 378.167,372.5 377.5,371.833 376.5,371.5C 374.3,366.63 373.967,361.63 375.5,356.5C 376.906,356.027 377.573,355.027 377.5,353.5C 377.5,351.5 378.5,350.5 380.5,350.5C 382.027,350.573 383.027,349.906 383.5,348.5C 383.842,347.662 384.508,347.328 385.5,347.5C 391.4,346.043 397.4,345.377 403.5,345.5 Z"/></g>
<g><path style="opacity:0.407" fill="#ccc0dc" d="M 118.5,376.5 C 103.342,377.496 88.0091,377.83 72.5,377.5C 72.5,367.167 72.5,356.833 72.5,346.5C 71.1667,346.5 69.8333,346.5 68.5,346.5C 68.5,350.833 68.5,355.167 68.5,359.5C 68.1667,359.5 67.8333,359.5 67.5,359.5C 67.5,354.833 67.5,350.167 67.5,345.5C 69.5,345.5 71.5,345.5 73.5,345.5C 73.5,355.833 73.5,366.167 73.5,376.5C 88.5,376.5 103.5,376.5 118.5,376.5 Z"/></g>
<g><path style="opacity:0.306" fill="#c3b6d7" d="M 274.5,346.5 C 272.901,346.232 271.568,346.566 270.5,347.5C 270.5,361.833 270.5,376.167 270.5,390.5C 270.167,390.5 269.833,390.5 269.5,390.5C 269.5,375.5 269.5,360.5 269.5,345.5C 271.415,345.216 273.081,345.549 274.5,346.5 Z"/></g>
<g><path style="opacity:0.794" fill="#644397" d="M 270.5,347.5 C 271.568,346.566 272.901,346.232 274.5,346.5C 274.5,365.167 274.5,383.833 274.5,402.5C 274.167,402.5 273.833,402.5 273.5,402.5C 273.5,384.167 273.5,365.833 273.5,347.5C 272.5,347.5 271.5,347.5 270.5,347.5 Z"/></g>
<g><path style="opacity:0.568" fill="#9c85bc" d="M 331.5,347.5 C 320.167,347.5 308.833,347.5 297.5,347.5C 297.5,368.833 297.5,390.167 297.5,411.5C 306.833,411.5 316.167,411.5 325.5,411.5C 325.5,411.833 325.5,412.167 325.5,412.5C 315.857,413.325 306.191,413.658 296.5,413.5C 296.5,390.833 296.5,368.167 296.5,345.5C 308.381,345.106 320.048,345.773 331.5,347.5 Z"/></g>
<g><path style="opacity:1" fill="#3c137c" d="M 331.5,347.5 C 331.5,348.167 331.833,348.5 332.5,348.5C 331.486,349.674 330.153,350.34 328.5,350.5C 319.5,350.5 310.5,350.5 301.5,350.5C 301.5,369.5 301.5,388.5 301.5,407.5C 305.988,408.166 310.654,408.499 315.5,408.5C 321.972,408.712 328.306,408.046 334.5,406.5C 335.5,406.833 336.167,407.5 336.5,408.5C 335.5,408.833 334.833,409.5 334.5,410.5C 331.455,410.508 328.455,410.841 325.5,411.5C 316.167,411.5 306.833,411.5 297.5,411.5C 297.5,390.167 297.5,368.833 297.5,347.5C 308.833,347.5 320.167,347.5 331.5,347.5 Z"/></g>
<g><path style="opacity:0.365" fill="#c2b4d6" d="M 409.5,346.5 C 411.553,346.402 413.22,347.069 414.5,348.5C 412.447,348.598 410.78,347.931 409.5,346.5 Z"/></g>
<g><path style="opacity:0.996" fill="#3c137c" d="M 72.5,377.5 C 87.9911,378.496 103.658,378.83 119.5,378.5C 119.5,368.167 119.5,357.833 119.5,347.5C 120.5,347.5 121.5,347.5 122.5,347.5C 122.5,368.833 122.5,390.167 122.5,411.5C 121.5,411.5 120.5,411.5 119.5,411.5C 120.14,401.442 119.473,391.775 117.5,382.5C 102.676,381.504 87.676,381.171 72.5,381.5C 73.1419,392.221 72.4753,402.554 70.5,412.5C 69.5084,412.672 68.8417,412.338 68.5,411.5C 68.5,394.167 68.5,376.833 68.5,359.5C 68.5,355.167 68.5,350.833 68.5,346.5C 69.8333,346.5 71.1667,346.5 72.5,346.5C 72.5,356.833 72.5,367.167 72.5,377.5 Z"/></g>
<g><path style="opacity:0.675" fill="#a28bc0" d="M 119.5,347.5 C 120.568,346.566 121.901,346.232 123.5,346.5C 124.826,368.598 124.826,390.598 123.5,412.5C 121.901,412.768 120.568,412.434 119.5,411.5C 120.5,411.5 121.5,411.5 122.5,411.5C 122.5,390.167 122.5,368.833 122.5,347.5C 121.5,347.5 120.5,347.5 119.5,347.5 Z"/></g>
<g><path style="opacity:0.996" fill="#654196" d="M 170.5,345.5 C 171.167,345.833 171.833,346.167 172.5,346.5C 174.674,349.515 176.341,352.849 177.5,356.5C 176.069,356.119 175.236,355.119 175,353.5C 173.991,355.025 173.491,356.692 173.5,358.5C 172.662,358.158 172.328,357.492 172.5,356.5C 171.833,353.833 171.167,353.833 170.5,356.5C 167.737,363.024 164.737,369.357 161.5,375.5C 159.393,378.057 158.059,381.057 157.5,384.5C 157.672,385.492 157.338,386.158 156.5,386.5C 154.375,389.088 153.042,392.088 152.5,395.5C 165.344,395.829 178.011,395.495 190.5,394.5C 191.043,394.56 191.376,394.893 191.5,395.5C 178.513,396.333 165.513,396.833 152.5,397C 162.342,397.17 172.009,397.67 181.5,398.5C 174.167,398.5 166.833,398.5 159.5,398.5C 156.482,398.335 153.482,398.502 150.5,399C 149.748,399.671 149.414,400.504 149.5,401.5C 148.069,402.78 147.402,404.447 147.5,406.5C 147.672,407.492 147.338,408.158 146.5,408.5C 145.094,408.973 144.427,409.973 144.5,411.5C 144.158,412.338 143.492,412.672 142.5,412.5C 140.952,412.179 140.285,411.179 140.5,409.5C 149.937,387.833 159.937,366.5 170.5,345.5 Z"/></g>
<g><path style="opacity:0.996" fill="#471f82" d="M 220.5,345.5 C 221.5,345.833 222.167,346.5 222.5,347.5C 222.833,348.5 223.5,349.167 224.5,349.5C 225.5,349.833 226.167,350.5 226.5,351.5C 226.427,353.027 227.094,354.027 228.5,354.5C 229.5,354.833 230.167,355.5 230.5,356.5C 231.419,359.089 233.086,361.089 235.5,362.5C 236.5,362.833 237.167,363.5 237.5,364.5C 238.419,367.089 240.086,369.089 242.5,370.5C 243.5,370.833 244.167,371.5 244.5,372.5C 244.738,374.404 245.738,375.738 247.5,376.5C 248.419,379.089 250.086,381.089 252.5,382.5C 253.5,382.833 254.167,383.5 254.5,384.5C 255.08,386.749 256.413,388.415 258.5,389.5C 259.5,389.833 260.167,390.5 260.5,391.5C 260.427,393.027 261.094,394.027 262.5,394.5C 264.5,395.833 266.167,397.5 267.5,399.5C 267.415,400.995 268.081,401.995 269.5,402.5C 270.491,398.555 270.824,394.555 270.5,390.5C 270.5,376.167 270.5,361.833 270.5,347.5C 271.5,347.5 272.5,347.5 273.5,347.5C 273.5,365.833 273.5,384.167 273.5,402.5C 273.665,405.85 273.498,409.183 273,412.5C 271.871,410.859 270.371,409.859 268.5,409.5C 265.453,406.455 262.787,403.122 260.5,399.5C 260.5,398.167 259.833,397.5 258.5,397.5C 255.167,393.5 251.833,389.5 248.5,385.5C 248.262,383.596 247.262,382.262 245.5,381.5C 240.157,376.156 235.157,370.489 230.5,364.5C 229.92,362.251 228.587,360.585 226.5,359.5C 225.833,359.5 225.5,359.167 225.5,358.5C 225.217,357.711 224.717,357.044 224,356.5C 223.5,374.83 223.333,393.164 223.5,411.5C 222.5,411.5 221.5,411.5 220.5,411.5C 220.83,394.325 220.497,377.325 219.5,360.5C 219.179,355.305 219.513,350.305 220.5,345.5 Z"/></g>
<g><path style="opacity:0.004" fill="#d8cee5" d="M 222.5,347.5 C 223.833,347.5 224.5,348.167 224.5,349.5C 223.5,349.167 222.833,348.5 222.5,347.5 Z"/></g>
<g><path style="opacity:0.204" fill="#cabedb" d="M 331.5,347.5 C 335.165,347.502 338.165,348.835 340.5,351.5C 337.833,350.5 335.167,349.5 332.5,348.5C 331.833,348.5 331.5,348.167 331.5,347.5 Z"/></g>
<g><path style="opacity:0.541" fill="#baabd1" d="M 383.5,348.5 C 383.027,349.906 382.027,350.573 380.5,350.5C 380.973,349.094 381.973,348.427 383.5,348.5 Z"/></g>
<g><path style="opacity:0.382" fill="#a38ec1" d="M 123.5,346.5 C 121.901,346.232 120.568,346.566 119.5,347.5C 119.5,357.833 119.5,368.167 119.5,378.5C 103.658,378.83 87.9911,378.496 72.5,377.5C 88.0091,377.83 103.342,377.496 118.5,376.5C 118.5,366.167 118.5,355.833 118.5,345.5C 120.415,345.216 122.081,345.549 123.5,346.5 Z"/></g>
<g><path style="opacity:0.769" fill="#ab96c6" d="M 408.5,351.5 C 411.228,351.171 413.562,351.837 415.5,353.5C 412.933,353.279 410.599,352.612 408.5,351.5 Z"/></g>
<g><path style="opacity:0.482" fill="#ac98c7" d="M 226.5,351.5 C 227.906,351.973 228.573,352.973 228.5,354.5C 227.094,354.027 226.427,353.027 226.5,351.5 Z"/></g>
<g><path style="opacity:0.09" fill="#d8cfe5" d="M 418.5,351.5 C 419.478,351.811 420.145,352.478 420.5,353.5C 418.701,354.788 417.035,354.788 415.5,353.5C 417.179,353.715 418.179,353.048 418.5,351.5 Z"/></g>
<g><path style="opacity:0.02" fill="#e1daea" d="M 172.5,356.5 C 171.833,356.5 171.167,356.5 170.5,356.5C 171.167,353.833 171.833,353.833 172.5,356.5 Z"/></g>
<g><path style="opacity:0.533" fill="#b19eca" d="M 337.5,354.5 C 339.404,354.738 340.738,355.738 341.5,357.5C 339.596,357.262 338.262,356.262 337.5,354.5 Z"/></g>
<g><path style="opacity:0.998" fill="#5a348e" d="M 332.5,348.5 C 335.167,349.5 337.833,350.5 340.5,351.5C 343.089,352.419 345.089,354.086 346.5,356.5C 346.738,358.404 347.738,359.738 349.5,360.5C 349.427,362.027 350.094,363.027 351.5,363.5C 351.69,366.855 352.69,369.855 354.5,372.5C 357.045,383.321 354.712,392.988 347.5,401.5C 346.167,402.167 345.167,403.167 344.5,404.5C 342.853,406.326 340.853,407.66 338.5,408.5C 337.833,408.5 337.167,408.5 336.5,408.5C 336.167,407.5 335.5,406.833 334.5,406.5C 334.5,406.167 334.5,405.833 334.5,405.5C 335.514,404.326 336.847,403.66 338.5,403.5C 341.833,402.167 344.167,399.833 345.5,396.5C 346.264,393.982 347.264,391.649 348.5,389.5C 349.222,389.082 349.722,388.416 350,387.5C 350.667,381.833 350.667,376.167 350,370.5C 349.722,369.584 349.222,368.918 348.5,368.5C 348.539,365.911 347.539,363.911 345.5,362.5C 345.573,360.973 344.906,359.973 343.5,359.5C 342.5,359.167 341.833,358.5 341.5,357.5C 340.738,355.738 339.404,354.738 337.5,354.5C 334.543,353.345 331.543,352.345 328.5,351.5C 328.5,351.167 328.5,350.833 328.5,350.5C 330.153,350.34 331.486,349.674 332.5,348.5 Z"/></g>
<g><path style="opacity:0.204" fill="#d2c7e0" d="M 377.5,353.5 C 377.573,355.027 376.906,356.027 375.5,356.5C 375.427,354.973 376.094,353.973 377.5,353.5 Z"/></g>
<g><path style="opacity:0.725" fill="#b3a0cc" d="M 230.5,356.5 C 232.914,357.911 234.581,359.911 235.5,362.5C 233.086,361.089 231.419,359.089 230.5,356.5 Z"/></g>
<g><path style="opacity:0.753" fill="#a994c5" d="M 346.5,356.5 C 348.262,357.262 349.262,358.596 349.5,360.5C 347.738,359.738 346.738,358.404 346.5,356.5 Z"/></g>
<g><path style="opacity:0.366" fill="#b9a9d0" d="M 225.5,358.5 C 224.503,376.659 224.17,394.992 224.5,413.5C 222.585,413.784 220.919,413.451 219.5,412.5C 221.099,412.768 222.432,412.434 223.5,411.5C 223.333,393.164 223.5,374.83 224,356.5C 224.717,357.044 225.217,357.711 225.5,358.5 Z"/></g>
<g><path style="opacity:0.469" fill="#b19fcb" d="M 380.5,357.5 C 380.016,360.716 380.016,364.049 380.5,367.5C 379.163,365.651 378.497,363.484 378.5,361C 378.608,359.319 379.275,358.152 380.5,357.5 Z"/></g>
<g><path style="opacity:0.843" fill="#9e86bd" d="M 177.5,356.5 C 178.537,357.93 179.204,359.597 179.5,361.5C 177.787,360.365 177.12,358.698 177.5,356.5 Z"/></g>
<g><path style="opacity:0.724" fill="#70519f" d="M 219.5,360.5 C 220.497,377.325 220.83,394.325 220.5,411.5C 221.5,411.5 222.5,411.5 223.5,411.5C 222.432,412.434 221.099,412.768 219.5,412.5C 219.5,395.167 219.5,377.833 219.5,360.5 Z"/></g>
<g><path style="opacity:0.004" fill="#d2c7e1" d="M 226.5,359.5 C 228.587,360.585 229.92,362.251 230.5,364.5C 228.413,363.415 227.08,361.749 226.5,359.5 Z"/></g>
<g><path style="opacity:0.102" fill="#d4cae2" d="M 343.5,359.5 C 344.906,359.973 345.573,360.973 345.5,362.5C 344.094,362.027 343.427,361.027 343.5,359.5 Z"/></g>
<g><path style="opacity:0.341" fill="#bcacd2" d="M 349.5,360.5 C 350.906,360.973 351.573,361.973 351.5,363.5C 350.094,363.027 349.427,362.027 349.5,360.5 Z"/></g>
<g><path style="opacity:0.318" fill="#c3b5d7" d="M 375.5,356.5 C 373.967,361.63 374.3,366.63 376.5,371.5C 374.348,369.393 373.348,366.726 373.5,363.5C 373.44,360.845 374.107,358.511 375.5,356.5 Z"/></g>
<g><path style="opacity:0.224" fill="#c7bada" d="M 175.5,362.5 C 177.293,364.426 178.293,366.759 178.5,369.5C 176.707,367.574 175.707,365.241 175.5,362.5 Z"/></g>
<g><path style="opacity:0.164" fill="#d6cde3" d="M 328.5,350.5 C 328.5,350.833 328.5,351.167 328.5,351.5C 319.833,351.5 311.167,351.5 302.5,351.5C 302.5,370.167 302.5,388.833 302.5,407.5C 302.167,407.5 301.833,407.5 301.5,407.5C 301.5,388.5 301.5,369.5 301.5,350.5C 310.5,350.5 319.5,350.5 328.5,350.5 Z"/></g>
<g><path style="opacity:0.204" fill="#d1c5df" d="M 345.5,362.5 C 347.539,363.911 348.539,365.911 348.5,368.5C 346.992,366.819 345.992,364.819 345.5,362.5 Z"/></g>
<g><path style="opacity:0.808" fill="#b09dca" d="M 237.5,364.5 C 239.914,365.911 241.581,367.911 242.5,370.5C 240.086,369.089 238.419,367.089 237.5,364.5 Z"/></g>
<g><path style="opacity:0.933" fill="#957bb7" d="M 351.5,363.5 C 353.472,366.084 354.472,369.084 354.5,372.5C 352.69,369.855 351.69,366.855 351.5,363.5 Z"/></g>
<g><path style="opacity:0.039" fill="#f1eef5" d="M 220.5,345.5 C 219.513,350.305 219.179,355.305 219.5,360.5C 219.5,377.833 219.5,395.167 219.5,412.5C 218.171,389.996 218.171,367.33 219.5,344.5C 220.107,344.624 220.44,344.957 220.5,345.5 Z"/></g>
<g><path style="opacity:0.529" fill="#af9dca" d="M 67.5,359.5 C 67.8333,359.5 68.1667,359.5 68.5,359.5C 68.5,376.833 68.5,394.167 68.5,411.5C 66.563,394.455 66.2296,377.121 67.5,359.5 Z"/></g>
<g><path style="opacity:0.02" fill="#d8cfe5" d="M 376.5,371.5 C 377.5,371.833 378.167,372.5 378.5,373.5C 377.167,373.5 376.5,372.833 376.5,371.5 Z"/></g>
<g><path style="opacity:0.729" fill="#ac99c7" d="M 244.5,372.5 C 246.262,373.262 247.262,374.596 247.5,376.5C 245.738,375.738 244.738,374.404 244.5,372.5 Z"/></g>
<g><path style="opacity:0.008" fill="#d1c6e0" d="M 390.5,374.5 C 394.736,375.008 398.736,376.008 402.5,377.5C 398.126,377.498 394.126,376.498 390.5,374.5 Z"/></g>
<g><path style="opacity:0.173" fill="#d8cfe5" d="M 380.5,375.5 C 382.027,375.427 383.027,376.094 383.5,377.5C 381.973,377.573 380.973,376.906 380.5,375.5 Z"/></g>
<g><path style="opacity:0.91" fill="#a28bc0" d="M 247.5,376.5 C 249.914,377.911 251.581,379.911 252.5,382.5C 250.086,381.089 248.419,379.089 247.5,376.5 Z"/></g>
<g><path style="opacity:0.063" fill="#d4cae2" d="M 348.5,368.5 C 349.222,368.918 349.722,369.584 350,370.5C 350.667,376.167 350.667,381.833 350,387.5C 349.722,388.416 349.222,389.082 348.5,389.5C 349.833,382.5 349.833,375.5 348.5,368.5 Z"/></g>
<g><path style="opacity:0.608" fill="#ab97c6" d="M 384.5,377.5 C 388.084,377.975 391.417,378.975 394.5,380.5C 390.714,380.68 387.381,379.68 384.5,377.5 Z"/></g>
<g><path style="opacity:0.482" fill="#b6a4ce" d="M 402.5,377.5 C 404.786,377.595 406.786,378.262 408.5,379.5C 406.102,379.741 404.102,379.074 402.5,377.5 Z"/></g>
<g><path style="opacity:0.157" fill="#cabedc" d="M 161.5,375.5 C 160.958,378.912 159.625,381.912 157.5,384.5C 158.059,381.057 159.393,378.057 161.5,375.5 Z"/></g>
<g><path style="opacity:0.996" fill="#5d3890" d="M 177.5,356.5 C 177.12,358.698 177.787,360.365 179.5,361.5C 185.062,371.496 190.062,381.829 194.5,392.5C 194.12,394.698 194.787,396.365 196.5,397.5C 196.462,400.181 197.129,402.681 198.5,405C 198.333,405.5 198.167,406 198,406.5C 197.329,405.748 196.496,405.414 195.5,405.5C 194.662,405.158 194.328,404.492 194.5,403.5C 194.573,401.973 193.906,400.973 192.5,400.5C 189.316,398.586 185.649,397.92 181.5,398.5C 172.009,397.67 162.342,397.17 152.5,397C 165.513,396.833 178.513,396.333 191.5,395.5C 191.376,394.893 191.043,394.56 190.5,394.5C 190.672,393.508 190.338,392.842 189.5,392.5C 185.051,385.267 181.385,377.601 178.5,369.5C 178.293,366.759 177.293,364.426 175.5,362.5C 174.326,361.486 173.66,360.153 173.5,358.5C 173.491,356.692 173.991,355.025 175,353.5C 175.236,355.119 176.069,356.119 177.5,356.5 Z"/></g>
<g><path style="opacity:0.365" fill="#b6a4cd" d="M 394.5,380.5 C 397.495,380.294 400.162,380.96 402.5,382.5C 399.505,382.706 396.838,382.04 394.5,380.5 Z"/></g>
<g><path style="opacity:0.027" fill="#c9bcdb" d="M 245.5,381.5 C 247.262,382.262 248.262,383.596 248.5,385.5C 246.738,384.738 245.738,383.404 245.5,381.5 Z"/></g>
<g><path style="opacity:0.678" fill="#b3a1cc" d="M 402.5,382.5 C 404.898,382.259 406.898,382.926 408.5,384.5C 406.214,384.405 404.214,383.738 402.5,382.5 Z"/></g>
<g><path style="opacity:0.402" fill="#ab99c7" d="M 117.5,382.5 C 102.833,382.5 88.1667,382.5 73.5,382.5C 73.5,392.833 73.5,403.167 73.5,413.5C 72.209,413.737 71.209,413.404 70.5,412.5C 72.4753,402.554 73.1419,392.221 72.5,381.5C 87.676,381.171 102.676,381.504 117.5,382.5 Z"/></g>
<g><path style="opacity:0.4" fill="#bcabd1" d="M 415.5,382.5 C 417.773,382.957 419.106,384.29 419.5,386.5C 417.659,385.598 416.326,384.264 415.5,382.5 Z"/></g>
<g><path style="opacity:0.381" fill="#b7a7cf" d="M 117.5,382.5 C 119.473,391.775 120.14,401.442 119.5,411.5C 120.568,412.434 121.901,412.768 123.5,412.5C 122.081,413.451 120.415,413.784 118.5,413.5C 118.808,403.085 118.475,392.751 117.5,382.5 Z"/></g>
<g><path style="opacity:0.627" fill="#bfb0d4" d="M 254.5,384.5 C 256.587,385.585 257.92,387.251 258.5,389.5C 256.413,388.415 255.08,386.749 254.5,384.5 Z"/></g>
<g><path style="opacity:0.576" fill="#bbabd1" d="M 410.5,385.5 C 412.404,385.738 413.738,386.738 414.5,388.5C 412.596,388.262 411.262,387.262 410.5,385.5 Z"/></g>
<g><path style="opacity:0.173" fill="#d2c7e1" d="M 419.5,386.5 C 420.906,386.973 421.573,387.973 421.5,389.5C 420.094,389.027 419.427,388.027 419.5,386.5 Z"/></g>
<g><path style="opacity:0.557" fill="#9077b4" d="M 269.5,390.5 C 269.833,390.5 270.167,390.5 270.5,390.5C 270.824,394.555 270.491,398.555 269.5,402.5C 268.081,401.995 267.415,400.995 267.5,399.5C 268.117,399.611 268.617,399.944 269,400.5C 269.498,397.183 269.665,393.85 269.5,390.5 Z"/></g>
<g><path style="opacity:0.678" fill="#a994c5" d="M 260.5,391.5 C 261.906,391.973 262.573,392.973 262.5,394.5C 261.094,394.027 260.427,393.027 260.5,391.5 Z"/></g>
<g><path style="opacity:0.38" fill="#b7a7cf" d="M 414.5,388.5 C 415.79,389.058 416.623,390.058 417,391.5C 417.796,394.039 417.629,396.372 416.5,398.5C 416.69,394.968 416.023,391.635 414.5,388.5 Z"/></g>
<g><path style="opacity:0.071" fill="#ebe6f2" d="M 156.5,386.5 C 156.202,389.265 155.202,391.765 153.5,394C 159.5,394.167 165.5,394.333 171.5,394.5C 177.872,394.496 183.872,393.829 189.5,392.5C 190.338,392.842 190.672,393.508 190.5,394.5C 178.011,395.495 165.344,395.829 152.5,395.5C 153.042,392.088 154.375,389.088 156.5,386.5 Z"/></g>
<g><path style="opacity:0.902" fill="#a088be" d="M 194.5,392.5 C 195.931,393.78 196.598,395.447 196.5,397.5C 194.787,396.365 194.12,394.698 194.5,392.5 Z"/></g>
<g><path style="opacity:0.506" fill="#cbbedc" d="M 258.5,397.5 C 259.833,397.5 260.5,398.167 260.5,399.5C 259.5,399.167 258.833,398.5 258.5,397.5 Z"/></g>
<g><path style="opacity:0.353" fill="#beafd3" d="M 159.5,398.5 C 156.061,399.019 152.728,400.019 149.5,401.5C 149.414,400.504 149.748,399.671 150.5,399C 153.482,398.502 156.482,398.335 159.5,398.5 Z"/></g>
<g><path style="opacity:0.365" fill="#bcacd2" d="M 181.5,398.5 C 185.649,397.92 189.316,398.586 192.5,400.5C 188.663,400.069 184.997,399.402 181.5,398.5 Z"/></g>
<g><path style="opacity:0.506" fill="#a994c5" d="M 345.5,396.5 C 344.167,399.833 341.833,402.167 338.5,403.5C 340.5,400.833 342.833,398.5 345.5,396.5 Z"/></g>
<g><path style="opacity:0.204" fill="#cdc1dd" d="M 192.5,400.5 C 193.906,400.973 194.573,401.973 194.5,403.5C 193.094,403.027 192.427,402.027 192.5,400.5 Z"/></g>
<g><path style="opacity:0.69" fill="#af9bc9" d="M 196.5,397.5 C 198.539,401.266 200.205,405.266 201.5,409.5C 199.821,409.285 198.821,409.952 198.5,411.5C 197.456,409.548 196.456,407.548 195.5,405.5C 196.496,405.414 197.329,405.748 198,406.5C 198.167,406 198.333,405.5 198.5,405C 197.129,402.681 196.462,400.181 196.5,397.5 Z"/></g>
<g><path style="opacity:0.7" fill="#957cb8" d="M 273.5,402.5 C 273.833,402.5 274.167,402.5 274.5,402.5C 274.211,406.106 274.544,409.606 275.5,413C 274.975,413.692 274.308,414.192 273.5,414.5C 271.479,413.145 269.812,411.479 268.5,409.5C 270.371,409.859 271.871,410.859 273,412.5C 273.498,409.183 273.665,405.85 273.5,402.5 Z"/></g>
<g><path style="opacity:0.02" fill="#dfd7e9" d="M 347.5,401.5 C 347.5,403.5 346.5,404.5 344.5,404.5C 345.167,403.167 346.167,402.167 347.5,401.5 Z"/></g>
<g><path style="opacity:0.6" fill="#a993c5" d="M 416.5,398.5 C 416.759,402.237 415.093,404.57 411.5,405.5C 413.424,403.305 415.091,400.972 416.5,398.5 Z"/></g>
<g><path style="opacity:0.082" fill="#d6cce4" d="M 421.5,400.5 C 421.771,402.38 421.104,403.713 419.5,404.5C 419.66,402.847 420.326,401.514 421.5,400.5 Z"/></g>
<g><path style="opacity:0.188" fill="#d1c6e0" d="M 149.5,401.5 C 149.598,403.553 148.931,405.22 147.5,406.5C 147.402,404.447 148.069,402.78 149.5,401.5 Z"/></g>
<g><path style="opacity:0.2" fill="#d8cfe5" d="M 375.5,403.5 C 374.5,403.5 373.5,403.5 372.5,403.5C 372.366,405.292 372.699,406.958 373.5,408.5C 372.275,407.848 371.608,406.681 371.5,405C 371.605,400.905 372.938,400.405 375.5,403.5 Z"/></g>
<g><path style="opacity:0.341" fill="#c3b5d7" d="M 375.5,403.5 C 377.153,403.66 378.486,404.326 379.5,405.5C 377.62,405.771 376.287,405.104 375.5,403.5 Z"/></g>
<g><path style="opacity:0.439" fill="#bbacd2" d="M 379.5,405.5 C 387.326,407.798 395.326,408.798 403.5,408.5C 399.354,409.647 395.02,409.814 390.5,409C 386.386,408.885 382.719,407.718 379.5,405.5 Z"/></g>
<g><path style="opacity:0.004" fill="#dcd4e8" d="M 418.5,405.5 C 418.5,406.833 417.833,407.5 416.5,407.5C 416.833,406.5 417.5,405.833 418.5,405.5 Z"/></g>
<g><path style="opacity:0.533" fill="#9881ba" d="M 334.5,405.5 C 334.5,405.833 334.5,406.167 334.5,406.5C 328.306,408.046 321.972,408.712 315.5,408.5C 310.654,408.499 305.988,408.166 301.5,407.5C 301.833,407.5 302.167,407.5 302.5,407.5C 313.256,407.902 323.922,407.236 334.5,405.5 Z"/></g>
<g><path style="opacity:0.667" fill="#b8a7cf" d="M 409.5,406.5 C 408.01,408.28 406.01,408.946 403.5,408.5C 405.302,407.542 407.302,406.875 409.5,406.5 Z"/></g>
<g><path style="opacity:0.761" fill="#b3a0cc" d="M 373.5,408.5 C 378.806,409.053 383.806,410.386 388.5,412.5C 383.101,412.235 378.101,410.902 373.5,408.5 Z"/></g>
<g><path style="opacity:0.078" fill="#c5b7d8" d="M 336.5,408.5 C 337.167,408.5 337.833,408.5 338.5,408.5C 337.486,409.674 336.153,410.34 334.5,410.5C 334.833,409.5 335.5,408.833 336.5,408.5 Z"/></g>
<g><path style="opacity:0.122" fill="#d8cee5" d="M 146.5,408.5 C 146.573,410.027 145.906,411.027 144.5,411.5C 144.427,409.973 145.094,408.973 146.5,408.5 Z"/></g>
<g><path style="opacity:0.769" fill="#674598" d="M 201.5,409.5 C 202.167,409.5 202.5,409.833 202.5,410.5C 202.5,411.833 201.833,412.5 200.5,412.5C 199.508,412.672 198.842,412.338 198.5,411.5C 198.821,409.952 199.821,409.285 201.5,409.5 Z"/></g>
<g><path style="opacity:0.133" fill="#d7cee4" d="M 334.5,410.5 C 331.727,411.657 328.727,412.324 325.5,412.5C 325.5,412.167 325.5,411.833 325.5,411.5C 328.455,410.841 331.455,410.508 334.5,410.5 Z"/></g>
<g><path style="opacity:0.408" fill="#cabddb" d="M 140.5,409.5 C 140.285,411.179 140.952,412.179 142.5,412.5C 141.292,413.782 139.958,413.782 138.5,412.5C 138.942,411.261 139.609,410.261 140.5,409.5 Z"/></g>
<g><path style="opacity:0.11" fill="#e8e4f0" d="M 202.5,410.5 C 203.404,411.209 203.737,412.209 203.5,413.5C 202.209,413.737 201.209,413.404 200.5,412.5C 201.833,412.5 202.5,411.833 202.5,410.5 Z"/></g>
<g><path style="opacity:0.655" fill="#bbaad1" d="M 388.5,412.5 C 394.833,412.5 401.167,412.5 407.5,412.5C 401.187,414.908 394.854,414.908 388.5,412.5 Z"/></g>
<g><path style="opacity:0.09" fill="#e5deed" d="M 280.5,437.5 C 277.794,437.575 275.127,437.908 272.5,438.5C 274.993,436.416 277.66,436.083 280.5,437.5 Z"/></g>
<g><path style="opacity:0.318" fill="#d3cae2" d="M 303.5,437.5 C 302.833,437.5 302.167,437.5 301.5,437.5C 302.167,434.833 302.833,434.833 303.5,437.5 Z"/></g>
<g><path style="opacity:0.843" fill="#8d71b1" d="M 202.5,453.5 C 200.473,453.662 198.473,453.495 196.5,453C 198.653,452.901 200.319,452.067 201.5,450.5C 201.328,449.508 201.662,448.842 202.5,448.5C 203.622,446.712 203.789,444.712 203,442.5C 202.583,441.244 201.75,440.577 200.5,440.5C 193.655,440.617 191.655,443.95 194.5,450.5C 194.611,451.117 194.944,451.617 195.5,452C 194.207,452.49 192.873,452.657 191.5,452.5C 188.627,447.475 188.96,442.641 192.5,438C 202.607,435.101 206.773,438.935 205,449.5C 204.338,450.984 203.504,452.317 202.5,453.5 Z M 200.5,440.5 C 202.051,442.913 202.717,445.579 202.5,448.5C 201.662,448.842 201.328,449.508 201.5,450.5C 199.167,451.833 196.833,451.833 194.5,450.5C 191.655,443.95 193.655,440.617 200.5,440.5 Z"/></g>
<g><path style="opacity:0.941" fill="#4c2787" d="M 248.5,437.5 C 251.572,437.183 254.572,437.516 257.5,438.5C 255.031,439.168 252.698,439.835 250.5,440.5C 248.952,440.179 248.285,439.179 248.5,437.5 Z"/></g>
<g><path style="opacity:0.255" fill="#d5cce3" d="M 332.5,444.5 C 333.109,441.122 331.776,439.122 328.5,438.5C 327.551,437.848 326.385,437.514 325,437.5C 323.319,437.608 322.152,438.275 321.5,439.5C 320.596,438.791 320.263,437.791 320.5,436.5C 324.308,436.163 327.974,436.663 331.5,438C 333.608,440.016 333.942,442.183 332.5,444.5 Z"/></g>
<g><path style="opacity:0.416" fill="#b2a1cb" d="M 167.5,437.5 C 166.188,439.743 165.522,442.41 165.5,445.5C 165.522,448.59 166.188,451.257 167.5,453.5C 167.5,453.833 167.5,454.167 167.5,454.5C 166.5,454.5 165.5,454.5 164.5,454.5C 164.5,448.5 164.5,442.5 164.5,436.5C 165.791,436.263 166.791,436.596 167.5,437.5 Z"/></g>
<g><path style="opacity:0.416" fill="#baabd1" d="M 231.5,437.5 C 231.167,438.5 230.5,439.167 229.5,439.5C 229.5,438.167 230.167,437.5 231.5,437.5 Z"/></g>
<g><path style="opacity:0.994" fill="#40187e" d="M 231.5,437.5 C 232.812,439.743 233.478,442.41 233.5,445.5C 233.333,448.167 233.167,450.833 233,453.5C 232.667,449.167 232.333,444.833 232,440.5C 230.812,441.563 230.312,442.897 230.5,444.5C 229.778,444.918 229.278,445.584 229,446.5C 228.506,444.866 228.34,443.199 228.5,441.5C 228.328,440.508 228.662,439.842 229.5,439.5C 230.5,439.167 231.167,438.5 231.5,437.5 Z"/></g>
<g><path style="opacity:0.995" fill="#522c8a" d="M 167.5,437.5 C 167.5,439.833 167.5,442.167 167.5,444.5C 170.5,444.5 173.5,444.5 176.5,444.5C 176.81,447.713 176.477,450.713 175.5,453.5C 174.596,452.791 174.263,451.791 174.5,450.5C 174.5,449.167 174.5,447.833 174.5,446.5C 172.167,446.5 169.833,446.5 167.5,446.5C 167.5,448.833 167.5,451.167 167.5,453.5C 166.188,451.257 165.522,448.59 165.5,445.5C 165.522,442.41 166.188,439.743 167.5,437.5 Z"/></g>
<g><path style="opacity:0.157" fill="#d9d1e6" d="M 174.5,439.5 C 175.209,438.596 176.209,438.263 177.5,438.5C 177.768,440.099 177.434,441.432 176.5,442.5C 176.715,440.821 176.048,439.821 174.5,439.5 Z"/></g>
<g><path style="opacity:0.035" fill="#dbd3e7" d="M 248.5,437.5 C 251.625,436.521 254.958,436.187 258.5,436.5C 258.5,437.833 258.5,439.167 258.5,440.5C 255.833,440.5 253.167,440.5 250.5,440.5C 252.698,439.835 255.031,439.168 257.5,438.5C 254.572,437.516 251.572,437.183 248.5,437.5 Z"/></g>
<g><path style="opacity:0.976" fill="#8e71b2" d="M 280.5,437.5 C 281.71,437.932 282.71,438.599 283.5,439.5C 283.5,439.833 283.5,440.167 283.5,440.5C 282.193,439.847 280.86,439.18 279.5,438.5C 278.537,438.97 278.537,439.637 279.5,440.5C 277.142,440.253 275.142,440.919 273.5,442.5C 273.649,441.448 273.483,440.448 273,439.5C 272.066,440.858 271.232,442.192 270.5,443.5C 270.12,441.302 270.787,439.635 272.5,438.5C 275.127,437.908 277.794,437.575 280.5,437.5 Z"/></g>
<g><path style="opacity:0.996" fill="#421a7f" d="M 283.5,440.5 C 283.672,441.492 283.338,442.158 282.5,442.5C 282.027,441.094 281.027,440.427 279.5,440.5C 278.537,439.637 278.537,438.97 279.5,438.5C 280.86,439.18 282.193,439.847 283.5,440.5 Z"/></g>
<g><path style="opacity:0.776" fill="#8366ab" d="M 328.5,438.5 C 320.527,438.674 320.527,439.174 328.5,440C 329.056,440.383 329.389,440.883 329.5,441.5C 327.883,440.962 326.216,440.629 324.5,440.5C 323.833,440.5 323.167,440.5 322.5,440.5C 321.833,440.5 321.5,440.167 321.5,439.5C 322.152,438.275 323.319,437.608 325,437.5C 326.385,437.514 327.551,437.848 328.5,438.5 Z"/></g>
<g><path style="opacity:0.044" fill="#e4dfed" d="M 345.5,437.5 C 349.298,436.517 353.298,436.183 357.5,436.5C 357.5,437.833 357.5,439.167 357.5,440.5C 354.5,440.5 351.5,440.5 348.5,440.5C 351.028,439.834 353.694,439.168 356.5,438.5C 353.232,437.513 349.898,437.18 346.5,437.5C 346.167,437.5 345.833,437.5 345.5,437.5 Z"/></g>
<g><path style="opacity:0.953" fill="#7b5aa5" d="M 174.5,439.5 C 176.048,439.821 176.715,440.821 176.5,442.5C 175.833,442.5 175.167,442.5 174.5,442.5C 173.167,441.5 173.167,440.5 174.5,439.5 Z"/></g>
<g><path style="opacity:0.886" fill="#a58fc2" d="M 303.5,437.5 C 304.931,438.78 305.598,440.447 305.5,442.5C 303.787,441.365 303.12,439.698 303.5,437.5 Z"/></g>
<g><path style="opacity:0.341" fill="#bbaad1" d="M 248.5,437.5 C 248.285,439.179 248.952,440.179 250.5,440.5C 249.306,441.272 248.306,442.272 247.5,443.5C 246.206,441.32 246.539,439.32 248.5,437.5 Z"/></g>
<g><path style="opacity:0.341" fill="#c2b4d6" d="M 279.5,440.5 C 281.027,440.427 282.027,441.094 282.5,442.5C 280.973,442.573 279.973,441.906 279.5,440.5 Z"/></g>
<g><path style="opacity:0.039" fill="#d6cce3" d="M 283.5,439.5 C 284.782,440.708 284.782,442.042 283.5,443.5C 282.893,443.376 282.56,443.043 282.5,442.5C 283.338,442.158 283.672,441.492 283.5,440.5C 283.5,440.167 283.5,439.833 283.5,439.5 Z"/></g>
<g><path style="opacity:0.922" fill="#a791c3" d="M 300.5,439.5 C 300.233,442.875 299.233,446.042 297.5,449C 297.836,450.03 298.503,450.53 299.5,450.5C 298.343,452.138 297.176,453.804 296,455.5C 295.308,454.975 294.808,454.308 294.5,453.5C 296.001,448.511 298.001,443.845 300.5,439.5 Z"/></g>
<g><path style="opacity:0.953" fill="#613d93" d="M 301.5,437.5 C 302.167,437.5 302.833,437.5 303.5,437.5C 303.12,439.698 303.787,441.365 305.5,442.5C 306.537,443.93 307.204,445.597 307.5,447.5C 307.657,448.873 307.49,450.207 307,451.5C 306.617,450.944 306.117,450.611 305.5,450.5C 303.5,450.5 301.5,450.5 299.5,450.5C 298.503,450.53 297.836,450.03 297.5,449C 299.233,446.042 300.233,442.875 300.5,439.5C 300.328,438.508 300.662,437.842 301.5,437.5 Z M 301.5,444.5 C 302.167,444.5 302.833,444.5 303.5,444.5C 302.833,447.167 302.167,447.167 301.5,444.5 Z"/></g>
<g><path style="opacity:0.306" fill="#dbd3e7" d="M 167.5,437.5 C 168.461,439.265 168.795,441.265 168.5,443.5C 170.735,443.795 172.735,443.461 174.5,442.5C 175.167,442.5 175.833,442.5 176.5,442.5C 177.765,446.454 177.765,450.454 176.5,454.5C 175.893,454.376 175.56,454.043 175.5,453.5C 176.477,450.713 176.81,447.713 176.5,444.5C 173.5,444.5 170.5,444.5 167.5,444.5C 167.5,442.167 167.5,439.833 167.5,437.5 Z"/></g>
<g><path style="opacity:1" fill="#7a5aa4" d="M 220.5,437.5 C 222.559,439.26 223.892,441.594 224.5,444.5C 224.768,446.099 224.434,447.432 223.5,448.5C 222.662,448.158 222.328,447.492 222.5,446.5C 222.715,444.821 222.048,443.821 220.5,443.5C 221.275,441.388 221.275,439.388 220.5,437.5 Z"/></g>
<g><path style="opacity:0.027" fill="#e9e4f0" d="M 303.5,444.5 C 302.833,444.5 302.167,444.5 301.5,444.5C 302.167,441.833 302.833,441.833 303.5,444.5 Z"/></g>
<g><path style="opacity:0.239" fill="#d9d1e6" d="M 220.5,437.5 C 219.188,439.743 218.522,442.41 218.5,445.5C 218.833,448.167 219.167,450.833 219.5,453.5C 220.487,450.232 220.82,446.898 220.5,443.5C 222.048,443.821 222.715,444.821 222.5,446.5C 221.527,448.948 221.194,451.615 221.5,454.5C 220.167,454.5 218.833,454.5 217.5,454.5C 217.5,448.5 217.5,442.5 217.5,436.5C 218.791,436.263 219.791,436.596 220.5,437.5 Z"/></g>
<g><path style="opacity:0.959" fill="#482183" d="M 220.5,437.5 C 221.275,439.388 221.275,441.388 220.5,443.5C 220.82,446.898 220.487,450.232 219.5,453.5C 219.167,450.833 218.833,448.167 218.5,445.5C 218.522,442.41 219.188,439.743 220.5,437.5 Z"/></g>
<g><path style="opacity:0.004" fill="#e1daeb" d="M 200.5,440.5 C 201.75,440.577 202.583,441.244 203,442.5C 203.789,444.712 203.622,446.712 202.5,448.5C 202.717,445.579 202.051,442.913 200.5,440.5 Z"/></g>
<g><path style="opacity:0.341" fill="#bdadd3" d="M 230.5,447.5 C 231.833,446.5 231.833,445.5 230.5,444.5C 230.312,442.897 230.812,441.563 232,440.5C 232.333,444.833 232.667,449.167 233,453.5C 233.167,450.833 233.333,448.167 233.5,445.5C 233.478,442.41 232.812,439.743 231.5,437.5C 231.811,436.522 232.478,435.855 233.5,435.5C 234.496,441.798 234.83,448.132 234.5,454.5C 233.178,454.67 232.011,454.337 231,453.5C 230.505,451.527 230.338,449.527 230.5,447.5 Z"/></g>
<g><path style="opacity:0.416" fill="#b3a2cc" d="M 247.5,443.5 C 251.828,443.037 255.828,443.87 259.5,446C 257.187,446.662 254.854,447.162 252.5,447.5C 252.918,446.778 253.584,446.278 254.5,446C 252.655,444.872 250.655,444.372 248.5,444.5C 248.5,445.5 248.5,446.5 248.5,447.5C 249.5,447.5 250.5,447.5 251.5,447.5C 250.739,448.391 249.739,449.058 248.5,449.5C 247.534,447.604 247.201,445.604 247.5,443.5 Z"/></g>
<g><path style="opacity:1" fill="#4a2384" d="M 252.5,447.5 C 252.167,447.5 251.833,447.5 251.5,447.5C 250.5,447.5 249.5,447.5 248.5,447.5C 248.5,446.5 248.5,445.5 248.5,444.5C 250.655,444.372 252.655,444.872 254.5,446C 253.584,446.278 252.918,446.778 252.5,447.5 Z"/></g>
<g><path style="opacity:0.867" fill="#7858a3" d="M 273.5,442.5 C 273.337,444.857 273.503,447.19 274,449.5C 275.302,450.085 276.469,450.751 277.5,451.5C 279.153,452.799 280.653,452.466 282,450.5C 282.464,451.094 282.631,451.761 282.5,452.5C 279.946,453.388 277.279,453.721 274.5,453.5C 272.876,453.64 271.71,452.973 271,451.5C 270.5,449.5 270,447.5 269.5,445.5C 269.543,444.584 269.876,443.917 270.5,443.5C 271.232,442.192 272.066,440.858 273,439.5C 273.483,440.448 273.649,441.448 273.5,442.5 Z"/></g>
<g><path style="opacity:0.988" fill="#7453a0" d="M 329.5,441.5 C 330.376,441.369 331.043,441.702 331.5,442.5C 330.221,444.146 328.555,445.313 326.5,446C 327.056,446.383 327.389,446.883 327.5,447.5C 326.5,447.5 325.5,447.5 324.5,447.5C 324.167,447.5 323.833,447.5 323.5,447.5C 323.5,446.5 323.5,445.5 323.5,444.5C 323.833,444.5 324.167,444.5 324.5,444.5C 326.674,444.25 328.341,443.25 329.5,441.5 Z"/></g>
<g><path style="opacity:0.987" fill="#643f95" d="M 328.5,438.5 C 331.776,439.122 333.109,441.122 332.5,444.5C 331.37,447.137 331.37,449.803 332.5,452.5C 332.158,453.338 331.492,453.672 330.5,453.5C 330.34,451.847 329.674,450.514 328.5,449.5C 327.662,449.158 327.328,448.492 327.5,447.5C 327.389,446.883 327.056,446.383 326.5,446C 328.555,445.313 330.221,444.146 331.5,442.5C 331.043,441.702 330.376,441.369 329.5,441.5C 329.389,440.883 329.056,440.383 328.5,440C 320.527,439.174 320.527,438.674 328.5,438.5 Z"/></g>
<g><path style="opacity:0.165" fill="#e2dcec" d="M 174.5,450.5 C 173.596,449.791 173.263,448.791 173.5,447.5C 171.833,447.5 170.167,447.5 168.5,447.5C 168.802,450.059 168.468,452.393 167.5,454.5C 167.5,454.167 167.5,453.833 167.5,453.5C 167.5,451.167 167.5,448.833 167.5,446.5C 169.833,446.5 172.167,446.5 174.5,446.5C 174.5,447.833 174.5,449.167 174.5,450.5 Z"/></g>
<g><path style="opacity:0.059" fill="#e2dcec" d="M 301.5,444.5 C 302.167,447.167 302.833,447.167 303.5,444.5C 304.404,445.209 304.737,446.209 304.5,447.5C 303.167,447.5 301.833,447.5 300.5,447.5C 300.263,446.209 300.596,445.209 301.5,444.5 Z M 301.5,444.5 C 302.167,444.5 302.833,444.5 303.5,444.5C 302.833,447.167 302.167,447.167 301.5,444.5 Z"/></g>
<g><path style="opacity:1" fill="#5d3991" d="M 346.5,437.5 C 349.898,437.18 353.232,437.513 356.5,438.5C 353.694,439.168 351.028,439.834 348.5,440.5C 348.5,441.5 348.5,442.5 348.5,443.5C 351.059,443.198 353.393,443.532 355.5,444.5C 353.721,446.344 351.388,447.01 348.5,446.5C 346.343,451.204 348.01,453.371 353.5,453C 351.19,453.497 348.857,453.663 346.5,453.5C 346.5,448.167 346.5,442.833 346.5,437.5 Z"/></g>
<g><path style="opacity:0.176" fill="#e1dbeb" d="M 355.5,444.5 C 356.404,445.209 356.737,446.209 356.5,447.5C 353.833,447.5 351.167,447.5 348.5,447.5C 348.5,447.167 348.5,446.833 348.5,446.5C 351.388,447.01 353.721,446.344 355.5,444.5 Z"/></g>
<g><path style="opacity:0.063" fill="#c9bddb" d="M 228.5,441.5 C 228.34,443.199 228.506,444.866 229,446.5C 229.278,445.584 229.778,444.918 230.5,444.5C 230.5,445.5 230.5,446.5 230.5,447.5C 229.833,448.833 229.167,450.167 228.5,451.5C 227.789,449.158 226.456,448.825 224.5,450.5C 224.167,449.833 223.833,449.167 223.5,448.5C 224.434,447.432 224.768,446.099 224.5,444.5C 225.161,445.718 225.828,447.051 226.5,448.5C 227.168,446.031 227.835,443.698 228.5,441.5 Z"/></g>
<g><path style="opacity:1" fill="#41197f" d="M 323.5,444.5 C 323.5,445.5 323.5,446.5 323.5,447.5C 323.662,449.527 323.495,451.527 323,453.5C 321.954,452.228 321.454,450.728 321.5,449C 321.256,446.343 321.922,444.843 323.5,444.5 Z"/></g>
<g><path style="opacity:0.063" fill="#eae5f1" d="M 256.5,451.5 C 253.482,451.335 250.482,451.502 247.5,452C 248.056,452.383 248.389,452.883 248.5,453.5C 246.952,453.179 246.285,452.179 246.5,450.5C 250.042,450.187 253.375,450.521 256.5,451.5 Z"/></g>
<g><path style="opacity:0.451" fill="#b19eca" d="M 282.5,452.5 C 282.631,451.761 282.464,451.094 282,450.5C 280.653,452.466 279.153,452.799 277.5,451.5C 279.799,450.222 282.132,448.889 284.5,447.5C 284.833,447.833 285.167,448.167 285.5,448.5C 284.479,449.901 283.479,451.235 282.5,452.5 Z"/></g>
<g><path style="opacity:0.231" fill="#c6b9d9" d="M 328.5,449.5 C 329.674,450.514 330.34,451.847 330.5,453.5C 328.896,452.713 328.229,451.38 328.5,449.5 Z"/></g>
<g><path style="opacity:0.992" fill="#492384" d="M 228.5,451.5 C 227.518,452.141 226.518,452.807 225.5,453.5C 224.614,452.675 224.281,451.675 224.5,450.5C 226.456,448.825 227.789,449.158 228.5,451.5 Z"/></g>
<g><path style="opacity:0.816" fill="#603d93" d="M 256.5,451.5 C 256.833,451.5 257.167,451.5 257.5,451.5C 255.012,453.388 252.012,454.055 248.5,453.5C 248.389,452.883 248.056,452.383 247.5,452C 250.482,451.502 253.482,451.335 256.5,451.5 Z"/></g>
<g><path style="opacity:0.298" fill="#c3b5d7" d="M 322.5,440.5 C 323.167,440.5 323.833,440.5 324.5,440.5C 323.595,441.702 323.595,443.036 324.5,444.5C 324.167,444.5 323.833,444.5 323.5,444.5C 321.922,444.843 321.256,446.343 321.5,449C 321.454,450.728 321.954,452.228 323,453.5C 323.495,451.527 323.662,449.527 323.5,447.5C 323.833,447.5 324.167,447.5 324.5,447.5C 324.5,449.833 324.5,452.167 324.5,454.5C 323.178,454.67 322.011,454.337 321,453.5C 320.151,448.974 320.651,444.64 322.5,440.5 Z"/></g>
<g><path style="opacity:0.027" fill="#d3c9e1" d="M 224.5,450.5 C 224.281,451.675 224.614,452.675 225.5,453.5C 226.518,452.807 227.518,452.141 228.5,451.5C 227.952,454.084 226.285,455.084 223.5,454.5C 223.232,452.901 223.566,451.568 224.5,450.5 Z"/></g>
<g><path style="opacity:0.62" fill="#baa9d1" d="M 307.5,447.5 C 308.67,449.65 309.67,451.984 310.5,454.5C 307.853,454.895 306.187,453.562 305.5,450.5C 306.117,450.611 306.617,450.944 307,451.5C 307.49,450.207 307.657,448.873 307.5,447.5 Z"/></g>
<g><path style="opacity:0.545" fill="#ad9ac8" d="M 345.5,437.5 C 345.833,437.5 346.167,437.5 346.5,437.5C 346.5,442.833 346.5,448.167 346.5,453.5C 348.857,453.663 351.19,453.497 353.5,453C 348.01,453.371 346.343,451.204 348.5,446.5C 348.5,446.833 348.5,447.167 348.5,447.5C 348.281,448.675 348.614,449.675 349.5,450.5C 352.316,451.018 354.982,451.851 357.5,453C 353.703,454.424 349.703,454.924 345.5,454.5C 345.5,448.833 345.5,443.167 345.5,437.5 Z"/></g>
<g><path style="opacity:0.565" fill="#b8a7cf" d="M 194.5,450.5 C 196.833,451.833 199.167,451.833 201.5,450.5C 200.319,452.067 198.653,452.901 196.5,453C 198.473,453.495 200.473,453.662 202.5,453.5C 202.217,454.289 201.717,454.956 201,455.5C 197.633,454.867 194.466,453.867 191.5,452.5C 192.873,452.657 194.207,452.49 195.5,452C 194.944,451.617 194.611,451.117 194.5,450.5 Z"/></g>
<g><path style="opacity:0.353" fill="#c7bad9" d="M 257.5,451.5 C 258.478,451.811 259.145,452.478 259.5,453.5C 255.685,454.808 252.019,454.808 248.5,453.5C 252.012,454.055 255.012,453.388 257.5,451.5 Z"/></g>
<g><path style="opacity:0.365" fill="#d3c9e1" d="M 282.5,452.5 C 282.585,453.995 281.919,454.995 280.5,455.5C 278.343,454.95 276.343,454.283 274.5,453.5C 277.279,453.721 279.946,453.388 282.5,452.5 Z"/></g>
<g><path style="opacity:0.38" fill="#c5b7d8" d="M 332.5,452.5 C 333.776,453.386 333.776,454.386 332.5,455.5C 331.478,455.145 330.811,454.478 330.5,453.5C 331.492,453.672 332.158,453.338 332.5,452.5 Z"/></g>
</svg>
