<?xml version="1.0" encoding="UTF-8"?>
<svg xmlns="http://www.w3.org/2000/svg" xmlns:xlink="http://www.w3.org/1999/xlink" width="75px" height="75px" viewBox="0 0 75 75" version="1.1">
<g id="surface1">
<path style=" stroke:none;fill-rule:nonzero;fill:rgb(0%,0%,0%);fill-opacity:1;" d="M 24.957031 69.195312 C 24.957031 69.644531 25.207031 70.054688 25.601562 70.265625 C 26 70.476562 26.480469 70.449219 26.851562 70.195312 L 35.199219 64.496094 L 24.957031 59.613281 Z M 24.957031 69.195312 "/>
<path style=" stroke:none;fill-rule:nonzero;fill:rgb(0%,0%,0%);fill-opacity:1;" d="M 74.609375 4.914062 C 74.382812 4.703125 74.085938 4.59375 73.785156 4.59375 C 73.605469 4.59375 73.425781 4.632812 73.253906 4.71875 L 1.199219 40.0625 C 0.460938 40.425781 -0.00390625 41.179688 0 42 C 0.00390625 42.820312 0.480469 43.570312 1.222656 43.921875 L 20.210938 52.972656 L 58.183594 21.761719 L 24.917969 55.214844 L 48.574219 66.488281 C 48.867188 66.625 49.183594 66.695312 49.496094 66.695312 C 49.765625 66.695312 50.03125 66.644531 50.28125 66.546875 C 50.835938 66.328125 51.273438 65.894531 51.492188 65.339844 L 74.914062 6.25 C 75.097656 5.785156 74.980469 5.253906 74.609375 4.914062 Z M 74.609375 4.914062 "/>
</g>
</svg>
